<svg xmlns="http://www.w3.org/2000/svg" viewBox="0 0 69.88 28.49"><defs><style>.cls-1{fill:#ed1c24;fill-rule:evenodd;}</style></defs><title>roth</title><g id="Layer_2" data-name="Layer 2"><g id="Layer_1-2" data-name="Layer 1"><path class="cls-1" d="M0,0H69.88V2.73H0V0ZM0,25.76H69.88v2.73H0V25.76ZM3.24,9H15.63v3.45H3.24V9ZM0,5.71H18.72v10H12.31l9.29,6.74H16L6.7,15.74H3.24v6.74H0V5.71Zm23.6,6.74H41.29v10H23.6v-10Zm3.08,6.74H38.21V15.74H26.69v3.44Zm16.66-6.74h2.83V5.71h3.34v6.74h5V5.71H57.9v6.74h12v10H67.11V15.74H57.9v6.74H54.56V15.74h-5v6.74H46.18V15.74H43.35V12.44Z"/></g></g></svg>