<?xml version="1.0" encoding="utf-8"?>
<!-- Generator: Adobe Illustrator 24.1.1, SVG Export Plug-In . SVG Version: 6.00 Build 0)  -->
<svg version="1.1" id="layer" xmlns="http://www.w3.org/2000/svg" xmlns:xlink="http://www.w3.org/1999/xlink" x="0px" y="0px"
	 viewBox="0 0 652 183" style="enable-background:new 0 0 652 183;" xml:space="preserve">
<style type="text/css">
	.st0{fill:#E61234;}
	.st1{fill:none;stroke:#000000;stroke-width:2.9428;}
</style>
<path class="st0" d="M96.2,98.8l22.9-34.3l-6.2,34.3H96.2z M66.3,98.8H33l7.5,26.9H48l-27.9,39.9h32.8l26.2-39.9h30.4l-6.2,40h47.3
	l21.9-151.6H125L66.3,98.8z"/>
<path class="st0" d="M349.9,135.2c0-2.4,2.4-9.1,6.2-13.4c2.2-2.6,4.6-4.1,8.7-4.1c4.4,0,7,1.5,11.1,6.3c-5.1,7.9-13.6,16-21.2,16
	C352.1,140,349.9,138.3,349.9,135.2 M179.5,125.7c3.4,0,5.3,0.7,5.3,3.6c0,0.7-0.2,1.6-0.5,2.8l-8.5,24.6c-1.7,5.1-2.4,5.3-2.4,6.6
	c0,2.2,1.7,2.4,5.1,2.4h23.1c5.1,0,5.1-0.2,8-7.3l7.5-22.2c2.2-6.7,4.4-8.4,8.5-8.4c2.6,0,4.4,1.2,4.4,3.4l-7.5,25.4
	c-1.7,5.5-2,5.5-2,6.6c0,2.2,1.7,2.4,5.1,2.4h22.9c5.8,0,6-0.9,8-7.3l7.7-22.2c2.2-6.7,4.4-8.4,8.5-8.4c2.6,0,4.3,1.2,4.3,3.4
	l-7.5,25.4c-1.7,5.5-2,5.5-2,6.6c0,2.2,1.7,2.4,5.1,2.4h23.5c4.8,0,6.6,0,6.6-4.8c0-1.4-0.3-2.4-1.4-4.4l7.7-24.9
	c3.1-9.3,4.1-12.7,4.1-17c0-10.9-8.7-18-21.6-18c-7.7,0-13.5,2.6-20.6,7.7c-7-5.8-13.5-8.5-22.7-8.5c-9.6,0-16.4,2.9-22.4,7.7
	c-1.4-3.4-2.4-4.6-5.3-4.6h-65.2v2.4l2.4,1l-1,20.1h-2.2l-0.7,3.4L179.5,125.7L179.5,125.7z M365.1,160.4c-1,2.2-1,2.7-1,3.1
	c0,1.9,1.5,2.2,4.4,2.2H394c3.2,0,4.4-1.2,4.4-2.9c0-1-0.5-2.2-0.7-4.6l16.2-50.1c1.5-4.6,1.9-6,1.9-6.8c0-2.4-1.7-2.5-5.1-2.5H390
	c-4.8,0-5.8,0.5-7.3,4.9c-6.6-6.1-14.5-9.7-23.5-9.7c-20,0-42.5,21.8-42.5,52.6c0,13.6,7.3,21.1,22,21.1c11.4,0,20.4-4.6,28.9-12.8
	L365.1,160.4z"/>
<path class="st0" d="M540.6,135.2c0-2.4,2.4-9.1,6.2-13.4c2.2-2.6,4.8-4.1,9-4.1c4.4,0,7,1.5,11.1,6.4c-5.1,7.9-13.8,16-21.4,16
	C542.8,140,540.6,138.3,540.6,135.2 M556.1,160.4c-1,2.2-1.2,2.7-1.2,3.1c0,1.9,1.7,2.2,4.6,2.2h25.6c3.2,0,4.4-1.2,4.4-2.9
	c0-1-0.5-2.2-0.7-4.6l16.1-50.1c1.5-4.6,2-6,2-6.8c0-2.4-1.7-2.6-5.1-2.6H581c-4.8,0-6,0.5-7.5,4.9c-6.7-6.1-14.3-9.7-23.4-9.7
	c-20.1,0-42.6,21.8-42.6,52.6c0,13.6,7.3,21.1,22,21.1c11.4,0,20.2-4.6,28.8-12.8L556.1,160.4z M461.1,102.4c0-2.9-0.9-3.6-4.1-3.6
	h-18.1c-6.3,0-6.3,0-9.9,10.2l-16.6,47.7c-0.2,0.5-2.1,6.3-2.1,6.6c0,2.2,1.7,2.4,5.1,2.4h22.9c5.8,0,6-0.9,8-7.3l7.7-22.2
	c2.2-6.7,4.4-8.4,8.5-8.4c2.6,0,4.4,1.2,4.4,3.4l-7.5,25.4c-1.7,5.5-2.2,5.5-2.2,6.6c0,2.2,1.7,2.4,5.1,2.4H486c4.8,0,6.6,0,6.6-4.8
	c0-1.4-0.2-2.4-1.2-4.4l7.5-24.9c3.1-9.3,4.1-12.7,4.1-17c0-10.9-8.5-18-21.5-18c-7.7,0-13.6,2.6-20.8,7.7L461.1,102.4z"/>
<path class="st0" d="M614.3,109.4c-2.8,0-5.1-2.2-5.1-5.1c0-2.8,2.3-5,5.1-5s5.1,2.2,5.1,5C619.4,107.1,617.1,109.4,614.3,109.4
	 M614.3,110.1c3.2,0,5.8-2.6,5.8-5.8c0-3.2-2.6-5.8-5.8-5.8s-5.8,2.6-5.8,5.8S611.1,110.1,614.3,110.1 M615.2,104.7
	c1.1,0,2-0.5,2-1.7c0-1-0.6-1.7-2.3-1.7h-2.8v6.3h0.7v-2.9h1.5l1.8,2.9h0.9L615.2,104.7z M612.9,103.9v-2h1.9c0.8,0,1.7,0.1,1.7,0.9
	c0,1.2-1.4,1-2.3,1h-1.3V103.9z"/>
<path class="st1" d="M300.8,86.2h280.5 M174.2,86.2h99.1"/>
<polygon points="192.2,70.3 182.8,70.3 180.6,81.2 175.6,81.2 180.6,57 185.6,57 183.7,66.3 193.1,66.3 195,57 200,57 195,81.2 
	190,81.2 "/>
<path d="M205.7,71c0.3-1.4,0.8-2.5,1.6-3.3c0.8-0.7,1.6-1.1,2.6-1.1s1.8,0.3,2.3,1c0.6,0.6,0.9,1.6,0.9,2.9c0,0.1,0,0.3,0,0.5H205.7
	z M217.4,70.8c0-2.4-0.6-4.3-1.9-5.6c-1.3-1.3-3-2-5.1-2c-3.4,0-6,1.3-7.8,3.8c-1.3,1.9-2,4-2,6.4c0,2.5,0.7,4.4,2.2,5.9
	s3.4,2.2,5.7,2.2c1.7,0,3.3-0.4,4.6-1.3c1.4-0.9,2.5-2.1,3.3-3.9l-4.2-0.7c-0.9,1.6-2.1,2.4-3.7,2.4c-1,0-1.8-0.4-2.4-1.1
	c-0.7-0.7-1-1.7-1-2.8c0-0.1,0-0.2,0-0.4H217C217.2,73,217.4,71.9,217.4,70.8"/>
<path d="M229.8,73.6c-0.2,1.2-0.5,2-0.8,2.6c-0.3,0.5-0.8,1-1.4,1.3c-0.6,0.3-1.3,0.5-2,0.5c-0.6,0-1.2-0.2-1.6-0.6
	c-0.4-0.4-0.6-0.8-0.6-1.4c0-0.7,0.3-1.2,0.8-1.6c0.7-0.6,2.3-1,4.6-1.3c0.5-0.1,0.8-0.1,1.1-0.2L229.8,73.6z M226.5,67.1
	c0.5-0.3,1.1-0.5,2-0.5c0.8,0,1.4,0.2,1.8,0.5c0.4,0.3,0.6,0.8,0.6,1.3c0,0.4-0.1,0.9-0.3,1.6c-0.8,0.3-2.3,0.5-4.5,0.7
	c-2.7,0.2-4.5,0.8-5.5,1.8s-1.6,2.3-1.6,4c0,1.5,0.5,2.7,1.4,3.7s2.1,1.4,3.6,1.4c0.9,0,1.8-0.2,2.7-0.6s1.7-1,2.4-1.8
	c0,0.7,0.2,1.3,0.4,2h4.6c-0.3-0.9-0.4-1.7-0.4-2.5s0.2-2.3,0.7-4.4c0.6-2.5,0.9-4.1,1-4.7s0.1-1.2,0.1-1.7c0-1.3-0.5-2.4-1.6-3.3
	s-2.7-1.4-5-1.4c-2.2,0-3.9,0.4-5.2,1.3s-2.2,2.1-2.8,3.7l4.6,0.4C225.6,68,226,67.5,226.5,67.1"/>
<path d="M238.8,67.2l0.7-3.6h2.3l0.6-2.8l5.4-3.3l-1.2,6h2.9l-0.7,3.6h-2.9l-1.5,7.3c-0.3,1.3-0.4,2.1-0.4,2.3
	c0,0.4,0.1,0.6,0.4,0.8c0.2,0.2,0.7,0.3,1.3,0.3c0.2,0,0.7,0,1.6-0.1l-0.7,3.5c-0.8,0.2-1.7,0.2-2.5,0.2c-1.7,0-2.9-0.3-3.7-1
	c-0.8-0.6-1.1-1.5-1.1-2.7c0-0.5,0.2-1.8,0.6-3.7l1.5-7h-2.6V67.2z"/>
<path d="M253.9,57h4.7l-0.9,4.3H253L253.9,57z M252.5,63.6h4.7l-3.7,17.6h-4.7L252.5,63.6z"/>
<path d="M262,63.6h4.5l-0.4,2.3c1.1-1,2.2-1.7,3.2-2.1s2-0.6,3.1-0.6c1.5,0,2.6,0.4,3.4,1.3c0.8,0.8,1.3,1.9,1.3,3.3
	c0,0.6-0.2,1.8-0.6,3.5l-2.1,9.9h-4.7l2.1-9.9c0.3-1.5,0.5-2.4,0.5-2.7c0-0.6-0.2-1.1-0.5-1.4c-0.4-0.3-0.9-0.5-1.5-0.5
	c-0.7,0-1.5,0.3-2.4,0.9s-1.5,1.4-2,2.3c-0.4,0.7-0.8,2.1-1.2,4.2l-1.5,7.2h-4.7L262,63.6z"/>
<path d="M284.8,70.7c0.5-1.4,1-2.4,1.8-3.1c0.7-0.7,1.5-1,2.3-1c0.9,0,1.7,0.4,2.4,1.1c0.7,0.8,1,1.7,1,3c0,1.1-0.2,2.2-0.6,3.3
	c-0.4,1.1-1,2-1.8,2.7c-0.8,0.6-1.6,0.9-2.4,0.9c-0.9,0-1.7-0.3-2.3-1c-0.6-0.7-0.9-1.7-0.9-3C284.3,72.7,284.5,71.8,284.8,70.7
	 M278.6,82.8c0,2,0.6,3.4,1.9,4.2c1.3,0.9,3.1,1.3,5.6,1.3c1.1,0,2.1-0.1,3-0.3c0.9-0.2,1.7-0.5,2.4-0.9c0.7-0.4,1.3-0.9,1.7-1.5
	c0.4-0.6,0.8-1.4,1.2-2.4c0.3-1,0.8-2.7,1.3-5l2.8-14.6H294l-0.6,3.1c-0.5-1.1-1.3-2-2.3-2.6s-2-0.9-3.2-0.9c-1.4,0-2.8,0.4-4.1,1.3
	c-1.4,0.9-2.4,2.2-3.2,3.9c-0.7,1.7-1.1,3.6-1.1,5.7c0,2.3,0.6,4.1,1.7,5.3c1.1,1.2,2.5,1.8,4.2,1.8c1.8,0,3.6-0.7,5.3-2.1l-0.2,0.8
	c-0.3,1.5-0.5,2.4-0.7,2.8c-0.3,0.7-0.7,1.2-1.2,1.5c-0.6,0.4-1.5,0.6-2.6,0.6c-0.6,0-1.1-0.1-1.5-0.3c-0.4-0.2-0.6-0.4-0.8-0.7
	c-0.2-0.3-0.2-0.6-0.2-1.1l-5-0.7C278.7,82.4,278.6,82.6,278.6,82.8"/>
<path d="M320,62.1c0-0.7,0.2-1.3,0.7-1.8c0.4-0.5,1-0.7,1.7-0.7c0.5,0,1,0.1,1.3,0.4s0.5,0.7,0.5,1.1c0,0.5-0.2,1-0.6,1.5
	c-0.5,0.7-1.5,1.3-2.8,2C320.2,63.7,320,62.8,320,62.1 M326.2,73.3c-0.3-0.4-0.8-1-1.4-1.8c-0.9-1.4-1.7-2.6-2.3-3.6
	c2-1,3.4-2.1,4.3-3.3c0.9-1.2,1.3-2.3,1.3-3.4c0-1.2-0.5-2.3-1.5-3.2c-1-0.9-2.4-1.4-4.1-1.4c-2,0-3.7,0.6-4.9,1.7
	c-1.2,1.2-1.9,2.6-1.9,4.3c0,1.2,0.4,2.5,1.1,4.1c-1.5,0.8-2.5,1.4-3.2,2c-0.9,0.7-1.6,1.6-2.2,2.7s-0.8,2.2-0.8,3.4
	c0,1.9,0.7,3.6,2.1,4.9s3.4,2,5.9,2c1.4,0,2.7-0.2,3.9-0.6c1.2-0.4,2.2-0.9,3-1.6c0.4,0.4,0.9,0.9,1.4,1.3c0.6,0.5,1,0.8,1.4,1
	l3-3.1c-1-0.8-1.8-1.6-2.4-2.3c0.4-0.4,0.9-1,1.4-1.7s0.9-1.4,1.2-2l-3.4-2C327.4,71.9,326.7,72.8,326.2,73.3 M322.8,76.4
	c-1.4,0.9-2.7,1.4-4,1.4c-1.1,0-1.9-0.3-2.6-1c-0.6-0.7-1-1.5-1-2.5c0-1.8,1.1-3.2,3.2-4.3C319.7,72.2,321.1,74.3,322.8,76.4"/>
<path d="M350.1,71.8l5.4-9.7l1.4,9.7H350.1z M358.3,81.2h4.7L359.1,57h-5.6l-13.7,24.2h5.1l2.9-5.3h9.6L358.3,81.2z"/>
<path d="M371.1,57h4.7l-0.9,4.3h-4.7L371.1,57z M369.7,63.6h4.7l-3.7,17.6H366L369.7,63.6z"/>
<path d="M378.9,63.6h4.5l-0.7,3.4c1.6-2.5,3.4-3.8,5.3-3.8c0.7,0,1.4,0.2,2.2,0.5l-1.8,3.9c-0.4-0.2-0.9-0.2-1.4-0.2
	c-0.8,0-1.6,0.3-2.5,0.9c-0.8,0.6-1.5,1.4-2,2.5c-0.5,1-0.9,2.7-1.4,4.9l-1.2,5.5h-4.7L378.9,63.6z"/>
<path d="M415.6,72.5l5,0.8c-1,2.7-2.4,4.8-4.4,6.2c-2,1.4-4.3,2.2-6.9,2.2c-3,0-5.3-0.9-6.9-2.7c-1.7-1.8-2.5-4.4-2.5-7.8
	c0-2.8,0.6-5.3,1.7-7.6c1.1-2.3,2.7-4,4.7-5.2s4.1-1.8,6.5-1.8c2.6,0,4.7,0.7,6.4,2.1c1.6,1.4,2.6,3.3,2.9,5.7l-4.8,0.5
	c-0.3-1.4-0.8-2.4-1.5-3.1c-0.8-0.6-1.8-0.9-3-0.9c-1.4,0-2.7,0.4-3.9,1.3c-1.2,0.8-2.1,2.1-2.9,3.9c-0.7,1.8-1.1,3.6-1.1,5.3
	c0,1.9,0.5,3.4,1.4,4.5s2.1,1.6,3.5,1.6c1.3,0,2.5-0.4,3.5-1.3C414.3,75.3,415.1,74.1,415.6,72.5"/>
<path d="M434.8,76.3c-0.9,1.1-2,1.7-3.3,1.7c-1,0-1.9-0.4-2.6-1.1s-1-1.7-1-3c0-1,0.2-2.1,0.7-3.3c0.4-1.2,1.1-2.1,1.9-2.8
	c0.8-0.6,1.7-0.9,2.8-0.9c1,0,1.9,0.3,2.6,1s1,1.6,1,2.7C436.7,72.8,436.1,74.7,434.8,76.3 M424.1,77.8c0.6,1.2,1.6,2.1,2.9,2.8
	c1.3,0.7,2.7,1,4.4,1c3,0,5.5-1,7.3-3.1s2.7-4.5,2.7-7.4c0-2.4-0.7-4.3-2.2-5.8c-1.5-1.4-3.5-2.1-6.1-2.1c-3,0-5.4,1-7.2,2.9
	c-1.8,1.9-2.7,4.5-2.7,7.8C423.2,75.3,423.5,76.6,424.1,77.8"/>
<path d="M446.9,63.6h4.5l-0.4,2.3c1.1-1,2.2-1.7,3.2-2.1s2-0.6,3.1-0.6c1.5,0,2.6,0.4,3.4,1.3c0.8,0.8,1.3,1.9,1.3,3.3
	c0,0.6-0.2,1.8-0.6,3.5l-2.1,9.9h-4.7l2.1-9.9c0.3-1.5,0.5-2.4,0.5-2.7c0-0.6-0.2-1.1-0.5-1.4c-0.4-0.3-0.9-0.5-1.5-0.5
	c-0.7,0-1.5,0.3-2.4,0.9s-1.5,1.4-2,2.3c-0.4,0.7-0.8,2.1-1.2,4.2l-1.5,7.2h-4.7L446.9,63.6z"/>
<path d="M470.4,69c0.9-1.5,2.1-2.3,3.5-2.3c0.9,0,1.7,0.4,2.4,1.2c0.7,0.8,1,1.8,1,3.1c0,1.1-0.2,2.3-0.7,3.5s-1.1,2.1-1.8,2.7
	c-0.8,0.6-1.6,0.9-2.4,0.9c-0.9,0-1.7-0.4-2.4-1.1c-0.6-0.7-1-1.7-1-2.9C469,72.2,469.5,70.6,470.4,69 M485.3,57h-4.7l-2,9.1
	c-1.2-1.9-3-2.8-5.4-2.8c-2.6,0-4.8,1.1-6.4,3.4s-2.4,4.8-2.4,7.6c0,2.4,0.6,4.3,1.7,5.5s2.6,1.9,4.4,1.9c1,0,2-0.2,2.8-0.5
	c0.8-0.4,1.7-1,2.5-1.8l-0.4,1.9h4.5L485.3,57z"/>
<path d="M489.5,57h4.7l-0.9,4.3h-4.7L489.5,57z M488.1,63.6h4.7l-3.7,17.6h-4.7L488.1,63.6z"/>
<path d="M495,67.2l0.7-3.6h2.3l0.6-2.8l5.4-3.3l-1.2,6h2.9l-0.7,3.6h-2.9l-1.5,7.3c-0.3,1.3-0.4,2.1-0.4,2.3c0,0.4,0.1,0.6,0.4,0.8
	c0.2,0.2,0.7,0.3,1.3,0.3c0.2,0,0.7,0,1.6-0.1l-0.7,3.5c-0.8,0.2-1.7,0.2-2.5,0.2c-1.7,0-2.9-0.3-3.7-1c-0.8-0.6-1.1-1.5-1.1-2.7
	c0-0.5,0.2-1.8,0.6-3.7l1.5-7H495V67.2z"/>
<path d="M510.2,57h4.7l-0.9,4.3h-4.7L510.2,57z M508.8,63.6h4.7l-3.7,17.6h-4.7L508.8,63.6z"/>
<path d="M526.9,76.3c-0.9,1.1-2,1.7-3.3,1.7c-1,0-1.9-0.4-2.6-1.1c-0.7-0.7-1-1.7-1-3c0-1,0.2-2.1,0.7-3.3c0.4-1.2,1.1-2.1,1.9-2.8
	c0.8-0.6,1.7-0.9,2.8-0.9c1,0,1.9,0.3,2.6,1c0.7,0.7,1,1.6,1,2.7C528.8,72.8,528.1,74.7,526.9,76.3 M516.2,77.8
	c0.6,1.2,1.6,2.1,2.9,2.8c1.3,0.7,2.7,1,4.4,1c3.1,0,5.5-1,7.3-3.1s2.7-4.5,2.7-7.4c0-2.4-0.7-4.3-2.2-5.8c-1.5-1.4-3.5-2.1-6.1-2.1
	c-3,0-5.4,1-7.2,2.9s-2.7,4.5-2.7,7.8C515.3,75.3,515.6,76.6,516.2,77.8"/>
<path d="M538.9,63.6h4.5l-0.4,2.3c1.1-1,2.2-1.7,3.2-2.1s2-0.6,3.1-0.6c1.5,0,2.6,0.4,3.4,1.3c0.8,0.8,1.3,1.9,1.3,3.3
	c0,0.6-0.2,1.8-0.6,3.5l-2.1,9.9h-4.7l2.1-9.9c0.3-1.5,0.5-2.4,0.5-2.7c0-0.6-0.2-1.1-0.5-1.4c-0.4-0.3-0.9-0.5-1.5-0.5
	c-0.7,0-1.5,0.3-2.4,0.9s-1.5,1.4-2,2.3c-0.4,0.7-0.8,2.1-1.2,4.2l-1.5,7.2h-4.7L538.9,63.6z"/>
<path d="M560.9,57h4.7l-0.9,4.3H560L560.9,57z M559.5,63.6h4.7l-3.7,17.6h-4.7L559.5,63.6z"/>
<path d="M569,63.6h4.5l-0.4,2.3c1.1-1,2.2-1.7,3.2-2.1s2-0.6,3.1-0.6c1.5,0,2.6,0.4,3.4,1.3c0.8,0.8,1.3,1.9,1.3,3.3
	c0,0.6-0.2,1.8-0.6,3.5l-2.1,9.9h-4.7l2.1-9.9c0.3-1.5,0.5-2.4,0.5-2.7c0-0.6-0.2-1.1-0.5-1.4c-0.4-0.3-0.9-0.5-1.5-0.5
	c-0.7,0-1.5,0.3-2.4,0.9s-1.5,1.4-2,2.3c-0.4,0.7-0.8,2.1-1.2,4.2l-1.5,7.2h-4.7L569,63.6z"/>
<path d="M591.9,70.7c0.5-1.4,1-2.4,1.7-3.1s1.5-1,2.3-1c0.9,0,1.7,0.4,2.4,1.1c0.7,0.8,1,1.7,1,3c0,1.1-0.2,2.2-0.6,3.3
	c-0.4,1.1-1,2-1.8,2.7c-0.8,0.6-1.6,0.9-2.4,0.9c-0.9,0-1.7-0.3-2.3-1s-0.9-1.7-0.9-3C591.3,72.7,591.5,71.8,591.9,70.7 M585.7,82.8
	c0,2,0.6,3.4,1.9,4.2c1.3,0.9,3.1,1.3,5.6,1.3c1.1,0,2.1-0.1,3-0.3c0.9-0.2,1.7-0.5,2.4-0.9s1.3-0.9,1.7-1.5s0.8-1.4,1.2-2.4
	c0.3-1,0.8-2.7,1.3-5l2.8-14.6h-4.5l-0.6,3.1c-0.5-1.1-1.3-2-2.3-2.6s-2-0.9-3.2-0.9c-1.4,0-2.8,0.4-4.2,1.3s-2.4,2.2-3.2,3.9
	c-0.7,1.7-1.1,3.6-1.1,5.7c0,2.3,0.6,4.1,1.7,5.3c1.1,1.2,2.5,1.8,4.2,1.8c1.8,0,3.6-0.7,5.3-2.1l-0.2,0.8c-0.3,1.5-0.5,2.4-0.7,2.8
	c-0.3,0.7-0.7,1.2-1.2,1.5c-0.6,0.4-1.5,0.6-2.6,0.6c-0.6,0-1.1-0.1-1.5-0.3c-0.4-0.2-0.6-0.4-0.8-0.7c-0.2-0.3-0.2-0.6-0.2-1.1
	l-5-0.7C585.7,82.4,585.7,82.6,585.7,82.8"/>
</svg>
