<?xml version="1.0" encoding="utf-8"?>
<!-- Generator: Adobe Illustrator 24.1.1, SVG Export Plug-In . SVG Version: 6.00 Build 0)  -->
<svg version="1.1"
	 id="svg2" xmlns:cc="http://creativecommons.org/ns#" xmlns:dc="http://purl.org/dc/elements/1.1/" xmlns:rdf="http://www.w3.org/1999/02/22-rdf-syntax-ns#" xmlns:svg="http://www.w3.org/2000/svg"
	 xmlns="http://www.w3.org/2000/svg" xmlns:xlink="http://www.w3.org/1999/xlink" x="0px" y="0px" viewBox="0 0 768 525"
	 style="enable-background:new 0 0 768 525;" xml:space="preserve">
<style type="text/css">
	.st0{fill:#FFFFFF;}
	.st1{fill:#1A68BB;}
	.st2{fill:#1A64B7;}
	.st3{fill:#231F20;}
</style>
<g id="g10" transform="matrix(1.3333333,0,0,-1.3333333,0,768)">
	<g id="g12" transform="scale(0.1)">
		<path id="path14" class="st0" d="M5760,750H0v5760h5760V750"/>
		<path id="path16" class="st1" d="M5091.4,3661.8c-8.1-32.6-38.9-172.1-135.3-268.6c-159.8-159.8-129.8,25-129.8,25
			c28.6,123.3,110.5,239.3,162.3,292.2C5097.8,3822,5103.5,3710.4,5091.4,3661.8z M5540.4,4305c-90.8,38.9-92.2-17-189.3-182.1
			c-97.1-165-121.4-233-121.4-233s-12.9-63.4-58.9,2.1c-21.7,30.8-98.6,33.7-188.1-35.8c0,0-141.4-83.9-248-342.5
			c-127.5-308.7,119.1-427.8,252.4-235.5c73.8,106.4,55.8,0,55.8,0s4.4-161,109.2-60.6c0,0,87.4,65.4,133.5,99.4l41.3,34
			c0,0,86,56-4.9,38.8c-89.8-16.9-109.2-36.3-109.2-36.3c-72.1-39.3-91.4-64.3-38.8,104.3c46.1,148.1,184.5,473.4,315.5,684.5
			c0,0,29.1,48.5,72.8,92.2C5586.8,4259.2,5625.4,4268.6,5540.4,4305L5540.4,4305z M3926.4,3705.5c-4.9-16.9-94.6-150.5-94.6-150.5
			s38.9-15.5,43.7-26.6c31.9-75.3-166.4-197.3-97.9-150.2c-112.4-77.4-120,33-87.4,92.4c55.8,102,141.1,196.2,204.7,237.4
			C3936.1,3734.7,3931.3,3722.6,3926.4,3705.5L3926.4,3705.5z M3336.7,3635.2c0,0-17.8-67.1-131-225.8
			c-81.3-113.7-165.1-70.3-143.2,7.4c14.4,51.1,115.4,221,213.6,303.3C3351.2,3783.2,3392.5,3749.2,3336.7,3635.2L3336.7,3635.2z
			 M4848.7,3729.8c0,0-12.4,125-160.2,94.7c-0.2,0-49.7-9.8-80.1-36.4c-19.4-16.9,0,21.9,0,68c0,46.1-77.7,34-104.4,24.3
			c-21-7.6-138.3-162.6-138.3-162.6C4183.8,3459,4074.5,3390,4074.5,3390s-46.7-69.8-19.4,70.4c17,87.4,118.4,288.3,109.2,320.4
			c-4.9,16.9-19.6,23.2-53.4,9.7c-12.1-4.8-36.4-24.3-19.4,55.8c17,80.1-106.8,48.6-133.5,38.8c-51.4-18.7-126.2-72.8-126.2-72.8
			c-105.3-71.6-251.1-268.7-276.7-337.3c0,0-21.3-74.8-37.2-86.8c-199-148-50.2,220.2-50.2,220.2
			c106.8,286.4,325.2,553.4,342.2,621.3c17,68-80.1,58.3-99.5,58.3c-19.4,0-271.8-453.8-271.8-453.8l4.9,9.7
			c-93.5,140.2-342.2-121.4-342.2-121.4c-161-185.4-230.7-380.1-157.8-485.4c109.2-157.8,316.5,80.7,325.2,106.8
			c-9.6-28.8-0.5-312.8,286.6-43.1c0,0,79.9-169.8,249.7-44.9c120,88.3,116.5,136.6,116.5,136.6s2.9-68.3,5.8-109.6
			c3.7-52.8-10.9-147.3,166.5-14.2c9.7,7.4,216,211.2,245.1,269.5c0,0-89.8-303.5-77.6-330.1c12.1-26.8,93.4-8.6,101.9,12.1
			c106.8,259.8,191.7,381.1,191.7,381.1S4665.9,3801.1,4848.7,3729.8L4848.7,3729.8z M1941.1,3625c-36.4-60.6-110-160-184.4-206.3
			c-128.6-80.2-131.1-38.8-97.1,38.8c52.6,120.3,182.8,225.1,271.8,274.2C2044.4,3794.1,1940.6,3624.2,1941.1,3625z M2708.1,3672.3
			c-7.3-9.7-89.8-92.2-157.8-150.5c-61.9-53.1-63.1-43.7-50.9-24.3c12.1,19.4,75.2,199,94.6,267c49.4,173-79.2,129.5-162.6,46.1
			c0,0-60.2-57.6-111.6-138.3c-140.8-220.9-274.3-300.9-274.3-293.8c0,77.8,165,303.5,182,342.3c0,0,78.5,99.6-67.9,63.1
			c-15.8-3.9-38.9,160.1-235.4,65.5l-342.2-16.9c0,0,162.6,283.9,191.7,322.7c28.1,37.5-4.8,46.2-4.8,46.2
			c-48.5,0-118.3,17.7-143.2,2.4c-43.7-26.7-186.9-366.4-186.9-366.4s-223.3-19.4-259.7-24.3c67.5,9-166-4.3-63.1-133.5
			c104.4-131.1,92.2,0,94.7,2.5c2.4,2.4,2.4,9.7,29.1,7.2c26.7-2.4,121.3,7.3,121.3,7.3l-145.6-347.1c0,0-21.8,60.8-41.3,72.8
			c-19.4,12.2-12.1-19.4-4.9-84.9c3.2-29.4-24.3-245.2,111.7-148.1c10.5,7.6,73.9,87.9,99.5,187c19.4,75.1,150.5,325.2,150.5,325.2
			l191.7,21.8c0,0-322.8-337.3-206.3-458.7c141.4-147.4,354.3,84.9,354.3,84.9s-31.6-126.2,41.3-138.3
			c152.2-25.4,365.7,236.2,470.8,385.9c0,0-72-315.4,24.3-344.7c84.2-25.6,419.3,415.2,410.2,395.7
			c-70.4-150.5-116.5-361.7-116.5-415.1c0-42.4,21.8-77.7,53.4-89.7c51.3-19.8,87.4,194.2,121.3,298.4
			c34,104.4,114.1,271.9,123.8,366.6C3001.9,3833.1,2939.1,3979.7,2708.1,3672.3L2708.1,3672.3z M982.5,3746.3
			c-48.1,39.5-312,247.7-70.4,361.6c144.6,68.2,291.2,43.7,291.2,43.7s9.5-132,121.3-85c117,49.3,101.9,145.6-24.3,182.1
			c-106.5,30.8-356.5,49.4-519.4-82.5c0,0-218.4-138.4-97.1-325.2c123.4-190.1,490.2-413.3,31.6-533.9
			c-46.1-12.2-210.4-5.4-254.8,24.3c-14.6,9.7-29.1,36.3-4.9,70.3c32.5,45.5,121.4,63.1,121.4,63.1s-75.2,48.6-240.3-31.5
			c-140.3-68.1-45-198.4,4.9-220.9c117.2-52.7,428.9-83.9,638.3,87.4C1140.2,3430.8,1177.2,3586.4,982.5,3746.3L982.5,3746.3z
			 M3855.4,5302.3c41.8,0,75.6,32.3,75.6,72.1c0,39.8-33.8,72.1-75.6,72.1c-41.9,0-75.7-32.3-75.7-72.1
			C3779.7,5334.5,3813.5,5302.3,3855.4,5302.3z M4282.6,4685.1c70.4,271.8,237.8,325.2,237.8,325.2c36.4,14.6,26.7-7.3,14.6-38.8
			c-37-96.2-201.4-281.8-206.3-286.4C4279.8,4639.1,4282.6,4685.1,4282.6,4685.1L4282.6,4685.1z M3768,4869.5
			c2.4,3.1-191.6-245.5-92.2-354.3c60.4-66.2,162.6-65.6,279.1-14.6c35.1,15.4,138.3,84.9,162.6,104.3
			c24.3,19.4-24.2-95,109.2-104.3c80.1-5.5,242.7,174.8,242.7,174.8c-71.2-247.9,104.2-183.5,131.1-155.3
			c51,53.4,264.5,313,264.5,313s-32.1-78.5-17-196.5c20-157.1,179.6-24,157.8-34c26.6,12.3,286.4,310.7,286.4,310.7
			s-100.9-224.1-116.5-351.9c-14.6-118.9,27.5-131.1,70.4-131.1c-2.4,0,95,271.9,155.3,412.6c50.9,118.9,68,162.6,68,233
			c0,156.4-107.5,72.8-116.5,72.8l-351.9-364c0,0,75.2,182.1,104.4,298.6c29.1,116.5-70.4,121.3-109.2,77.7
			c-33.7-37.8-373.8-407.7-373.8-407.7s114.1,257.3,140.8,339.8c23.6,72.9-17.1,78.9-53.4,82.5c-24.3,2.4-68-38.8-68-38.8
			s-44.1-3-72.8,2.4c-158,29.7-422.4-376.7-441.8-418.1c-24.7-15.7-137.5-86.4-214.6-117.3c-174.8-69.9-133.5,29.6-76.5,156.8
			c41.3,92.2,194.7,259.7,194.7,259.7c-12-36-44.4-87.7-12.7-116.5c6.5-5.9,70.3-45.6,82.5,2.4c29.4,115.4,114.1,201.5,111.6,199
			c36.4,36.4-19.7,175.5-184.5,43.7C3942.8,5080.6,3901.5,5044.2,3768,4869.5L3768,4869.5z M3005.3,5159.8c0-0.4,0-0.9-0.1-1.3
			c0-0.5,0.1-1,0.1-1.3C3005.3,5157.8,3005.3,5158.6,3005.3,5159.8z M3005.3,5157.1C3005.4,5155.4,3005.4,5155.6,3005.3,5157.1z
			 M2811.8,5051.5c60.7,80.1,39.8-1.7,14.6-48.6c-58.3-108.2-72.6-120.9-111.6-162.5C2712.3,4837.9,2761.8,4985.6,2811.8,5051.5
			L2811.8,5051.5z M1646.8,4469c109.2-12.1,89.5,12.5,128.6,77.7c27.9,46.6,291.2,352,288.8,349.5c0,0-84.9-237.8-104.4-279.1
			c-14.5-30.7-19.6-59.3,41.3-70.4c44.9-8.1,78.7,13.1,92.2,34c48.8,75.2,94.6,84.9,165,167.5c0,0-46.1-271.8,58.2-284
			c87.1-10,216,85,235.4,101.9c0,0-1.7-84.3,73.3-105.4c0,0,135.2-6.9,293.4,166.5l173.1,173.1c0,0-74.7-143.2-96.6-259.7
			c-16.6-88.4,121.2-95.7,126.5-53.3c4.9,38.8,211.7,520.4,236.4,492.7c23.4-26.2,26.7-97.1,176.9-25.6
			c27.4,13.2-17.9-76.2-37-140.9c-19.4-65.5-71.9-234.5-73.3-283c-2.4-82.5,128.4-100.4,139.8,3.3c24.5,223.2,186,529.6,226.4,612.6
			c28.5,58.8-88.5,67.7-88.5,67.7s-32-42.2-171.2-120.9c-10.6-5.9-139.8-83.2-123.2,10c10.7,59.7-68.7,54.5-79.4,50.2
			c-25.9-10.5-78.1-141.1-70.4-31.5c1.2,17.1-65.9,44.1-106.6-22c-247.4-402.1-445.4-474.9-452.8-479.4
			c-51.8-32-37.7,35.5-37.7,35.5c38.8,29.1,215.8,187.5,257.4,250.9c55.4,84.2,86,199.8,86.5,251.7c-1.4,25.9-21.5,233.9-254.1-9.9
			c-51-53.4-150.5-223.3-203.9-470.8c-6.9-4.9-134.8-112.4-169.9-65.5c0,0,14.6,99.5,34,145.6c19.4,46.1,87.4,167.5,99.5,252.4
			c12.2,85.2-93.1,86.3-121.4,46.1c-46.1-65.5-167.5-179.6-167.5-179.6s4.9,43.7,31.6,206.3c7.7,47.2-71.1,111-138.3,31.5
			c-148.1-174.7-317.9-347-317.9-347s186.9,332.5,233,412.5c57.2,99.3-82.5,97.1-114.1,41.3c-29.6-52.1-288.8-502.3-303.4-597
			C1604.4,4569.9,1578.2,4476.7,1646.8,4469"/>
		<path id="path18" class="st2" d="M1496.1,5396.1c-11.6-48.8-104.4-349.5-104.4-349.5l-216-24.3L1496.1,5396.1z M1248.5,4420.5
			c20.8-41.8,167.5-83.8,148.1,41.3c-7.9,51,0.2,141.7,106.8,461.1c4.9,14.6,106.8,17,121.4,14.6c190.5-31.7,148.3,126.2,31.6,126.2
			l-123.8-2.5c4.8,63.1,126.2,500,126.2,500s-7.3,184.4-126.2,46.2c-206.1-239.6-526.7-604.4-526.7-604.4
			c-87.4-12.1-162.6,4.9-225.7,12.2c-48.7,5.6-130-66.1,0-131.1c9.7-4.9,123.8-17,123.8-17S671,4561.4,646.6,4537
			c-24.3-24.3-87.5-112.8-31.6-143.2c34.8-18.9,99.5-19.4,104.4,9.7c11.6,69.4,314.9,446.9,366.5,480.5l276.7,29.1l-77.7-286.4
			c-77.7,55.8-150.7,60.5-121.4,9.7C1216.9,4544.3,1204.8,4614.6,1248.5,4420.5"/>
		<path id="path20" class="st3" d="M553.6,2419.8h-42v127.3H347.9v-127.3h-42v292.3h42v-127.3h163.7v127.3h42V2419.8"/>
		<path id="path22" class="st3" d="M946.1,2674.4H822.3v-88.3h119.6v-37.7H822.3v-90.8H950v-37.7H780.3v292.3h165.8V2674.4"/>
		<path id="path24" class="st3" d="M1220.5,2543.6h90.8l-47.1,105.9L1220.5,2543.6z M1410.3,2419.8h-42.8l-39,86.1h-124.3
			l-36.8-86.1h-42.9l125.6,294h29.6L1410.3,2419.8"/>
		<path id="path26" class="st3" d="M1823.9,2674.4h-101.1v-254.6h-42v254.6h-101.1v37.7h244.3V2674.4"/>
		<path id="path28" class="st3" d="M2067.7,2419.8h-42v292.3h42V2419.8"/>
		<path id="path30" class="st3" d="M2564.9,2419.8h-36l-195.4,225v-225H2294v292.3h33.4l198-226.3v226.3h39.4V2419.8"/>
		<path id="path32" class="st3" d="M3047.4,2439.9c-39-17.1-70.7-24-111.4-24c-89.6,0-155.6,62.6-155.6,148.3
			c0,86.1,67.7,151.7,156.9,151.7c34.3,0,58.3-5.6,104.1-24.9v-42.4c-34.3,18.9-69.9,28.7-105,28.7c-63.4,0-112.7-48.4-112.7-111.9
			c0-65.1,48.9-111,118.3-111c22.7,0,43.3,5.1,63.4,11.6v60h-56.2v37.7h98.1V2439.9"/>
		<path id="path34" class="st3" d="M3682.4,2593.3c31.3,19.7,38.1,32.6,38.1,47.6c0,17.1-14.1,30-33.4,30c-18,0-31.7-12-31.7-27.9
			C3655.4,2625.1,3670,2605.4,3682.4,2593.3z M3671.3,2543.6c-32.6-20.6-51-35.6-51-58.3c1.3-16.7,17.1-30.9,36-30.9
			c21.4,0,42.4,14.2,62.6,34.3L3671.3,2543.6z M3820.4,2565.1c-8.1-23.6-25.7-52.3-47.6-76.7l59.1-68.6h-54l-33.4,39.8
			c-36.4-33-66-43.7-92.6-43.7c-39.9,0-73.7,30.4-73.7,69.4c0,35.1,28.3,62.6,69,86.1c-17.1,18-33,42.9-33,67.7
			c0,40.7,29.6,67.3,75,67.3c41.1,0,70.3-27.9,70.3-63.4c0-28.3-15.9-51.4-53.6-78l41.1-47.1c12,12,24.9,32.6,31.3,47.1H3820.4"/>
		<path id="path36" class="st3" d="M4400.2,2543.6h90.9l-47.1,105.9L4400.2,2543.6z M4590.1,2419.8h-42.8l-39,86.1H4384l-36.9-86.1
			h-42.9l125.6,294h29.6L4590.1,2419.8"/>
		<path id="path38" class="st3" d="M4826.7,2419.8h-42v292.3h42V2419.8"/>
		<path id="path40" class="st3" d="M5096.3,2584.3h27c45,0,57.9,23.2,57.4,47.6c-0.4,27.4-16.7,44.1-57.4,44.1h-27V2584.3z
			 M5128,2712.1c59.1,0,96-31.3,96-81.9c0-33.9-17.6-59.1-48.9-71.6c26.6-17.6,42.9-44.6,65.1-81c12.4-20.1,19.7-30,39.9-57.8H5230
			l-38.6,60c-38.6,60-56.1,66.9-77.6,66.9h-17.6v-126.8h-42v292.3H5128"/>
		<path id="path42" class="st3" d="M552.6,2163.7c-36,21-66.9,30.4-100.7,30.4c-66.8,0-116.6-47.6-116.6-111.9
			c0-65.6,48-111,118.3-111c33,0,69,11.6,102,33v-45.8c-28.7-15-60-25.7-105.8-25.7c-109.7,0-157.7,84.4-157.7,145.7
			c0,89.1,67.3,154.3,160.3,154.3c30,0,60.4-7.3,100.3-24V2163.7"/>
		<path id="path44" class="st3" d="M913,1971.3c65.6,0,114,47.5,114,111.4c0,64.3-48.4,111.4-114,111.4
			c-65.1,0-113.6-47.1-113.6-111.4C799.4,2018.9,847.8,1971.3,913,1971.3z M913,2232.7c96.4,0,157.3-68.6,157.3-150
			c0-78.9-59.1-150-158.1-150c-95.6,0-156,70.7-156,150C756.1,2163.7,818.3,2232.7,913,2232.7"/>
		<path id="path46" class="st3" d="M1554.2,1936.6h-36l-195.4,225v-225h-39.4v292.3h33.4l198-226.3v226.3h39.4V1936.6"/>
		<path id="path48" class="st3" d="M1822.9,1974.3h66.8c95.1,0,117,72.4,117,108.4c0,58.7-37.3,108.4-119.1,108.4h-64.7V1974.3z
			 M1780.9,2228.9h113.6c108,0,155.6-77.1,155.6-146.1c0-75-58.7-146.1-155.1-146.1h-114V2228.9"/>
		<path id="path50" class="st3" d="M2306.4,1936.6h-42v292.3h42V1936.6"/>
		<path id="path52" class="st3" d="M2752.5,2191.2h-101.1v-254.6h-42v254.6h-101.1v37.7h244.3V2191.2"/>
		<path id="path54" class="st3" d="M2996.3,1936.6h-42v292.3h42V1936.6"/>
		<path id="path56" class="st3" d="M3367,1971.3c65.6,0,114,47.5,114,111.4c0,64.3-48.4,111.4-114,111.4
			c-65.1,0-113.6-47.1-113.6-111.4C3253.5,2018.9,3301.9,1971.3,3367,1971.3z M3367,2232.7c96.4,0,157.3-68.6,157.3-150
			c0-78.9-59.1-150-158.1-150c-95.6,0-156,70.7-156,150C3210.2,2163.7,3272.3,2232.7,3367,2232.7"/>
		<path id="path58" class="st3" d="M4008.2,1936.6h-36l-195.4,225v-225h-39.4v292.3h33.4l198-226.3v226.3h39.4V1936.6"/>
		<path id="path60" class="st3" d="M4276.9,1936.6h-42v292.3h42V1936.6"/>
		<path id="path62" class="st3" d="M4774.1,1936.6h-36l-195.4,225v-225h-39.4v292.3h33.4l198-226.3v226.3h39.4V1936.6"/>
		<path id="path64" class="st3" d="M5256.6,1956.7c-39-17.2-70.7-24-111.4-24c-89.6,0-155.6,62.6-155.6,148.3
			c0,86.1,67.7,151.7,156.8,151.7c34.3,0,58.3-5.6,104.2-24.9v-42.4c-34.3,18.9-69.9,28.7-105,28.7c-63.4,0-112.7-48.4-112.7-111.8
			c0-65.2,48.9-111,118.3-111c22.7,0,43.3,5.1,63.4,11.6v60h-56.1v37.7h98.1V1956.7"/>
	</g>
</g>
</svg>
