<?xml version="1.0" encoding="utf-8"?>
<!-- Generator: Adobe Illustrator 24.1.1, SVG Export Plug-In . SVG Version: 6.00 Build 0)  -->
<svg version="1.1" id="layer" xmlns="http://www.w3.org/2000/svg" xmlns:xlink="http://www.w3.org/1999/xlink" x="0px" y="0px"
	 viewBox="0 0 652 335" style="enable-background:new 0 0 652 335;" xml:space="preserve">
<style type="text/css">
	.st0{fill:#231C1C;}
	.st1{fill:#E4031B;}
	.st2{fill:#FFFFFF;}
</style>
<polygon class="st0" points="57.5,317.6 48.5,317.6 48.5,301.2 41.6,301.2 41.6,317.6 32.6,317.6 32.6,275.6 41.6,275.6 41.6,291.1 
	48.5,291.1 48.5,275.6 57.5,275.6 "/>
<path class="st0" d="M84.6,307.1c-1.3,7.6-6,11.1-11.2,11.1c-3.2,0-6.3-1-8.8-4.1c-2.4-3-3.6-7.3-3.6-11.7c0-4.2,1.2-8.8,3.2-11.8
	c2.2-3.3,5.6-4.8,8.7-4.8c7.3,0,11.7,6.7,11.7,17v1.6H69.9c-0.1,3.4,0.7,5.8,3.3,5.8c1.9,0,3-1.1,3.3-3.8L84.6,307.1z M76,298.3
	c0-3.1-0.7-5.4-3.1-5.4c-2.2,0-3.1,2.5-3,5.4H76z"/>
<path class="st0" d="M102,317.6c-0.2-1.4-0.3-2.9-0.3-4.3c-1.7,3.6-4.2,5-7.1,5c-4.1,0-7.6-3.2-7.6-9.4c0-4.9,2.7-8.2,5.7-9.6
	c2.8-1.2,5.7-1.7,8.6-2V297c0-2.8-0.5-3.9-2.6-3.9c-1.7,0-3.1,0.9-3.3,3.5l-7.8-1c1.3-7.8,6.5-9.8,11.4-9.8c2.6,0,5.9,0.5,8,2.7
	c2.9,2.9,2.5,6.9,2.5,11.4v10.9c0,2.3,0,4.6,0.7,6.8H102z M101.2,303c-2.1,0.3-5.5,1.2-5.5,5c0,2,0.9,2.9,2.2,2.9
	c3.2,0,3.2-3.9,3.2-7.3V303H101.2z"/>
<path class="st0" d="M111.3,294.3v-7.9h3.6l0.6-10l7.4-0.4v10.3h4.4v7.9H123V305c0,2.3-0.2,4,1.8,4c0.8,0,1.6-0.2,2.4-0.6v8.7
	l-5,0.9c-2.3,0.4-4.5-0.6-6.1-3.2c-1.7-2.6-1.6-5.6-1.6-8.9v-11.8h-3.2V294.3z"/>
<path class="st0" d="M139.3,317.6h-8.5v-31.2h8.5V317.6z M139.3,283.3h-8.5V275h8.5V283.3z"/>
<path class="st0" d="M151.8,286.3v4.4h0.1c1-3.5,3.5-5,6.2-5c2.1,0,4.4,0.9,5.7,3.2c1.4,2.6,1.4,6.1,1.4,9.4v19.3h-8.5v-19
	c0-1.9,0-4.5-1.8-4.5c-2.4,0-2.6,2.9-2.6,5.4v18h-8.5v-31.2L151.8,286.3L151.8,286.3z"/>
<path class="st0" d="M184.4,308.5c1.9,0.1,3.9,0.5,5.4,2.1c1.7,1.8,2.5,4.8,2.5,7.8c0,4.5-2.1,7.3-4.9,8.6c-2.4,1.2-5.7,1.3-8.3,1.3
	c-3.6,0-11.8-0.4-11.8-7.7c0-3,1.2-5.1,3.2-6.1c-1.2-1.3-2-2.7-2-4.9c0-3.6,2.1-5.7,4.2-6.9c-2.3-1.4-3.5-3.6-3.5-7.2
	c0-8.1,6.2-9.8,10.7-9.8c1.4,0,2.7,0.1,4.1,0.6c0.5-4.5,2-7.3,5.4-7.3l2.5,0.2l0.6,0.1l-0.2,8.4l-2.1-0.1c-0.8,0-2,0.1-2.4,1.2
	c1.5,1.7,2.4,4.3,2.4,7c0,7.8-5.6,9.5-10,9.5l-1-0.1l-0.9-0.1c-0.7,0-2.1,0-2.1,1.5c0,1.6,1.6,1.5,2.4,1.5L184.4,308.5z
	 M176.6,317.1c-1,0-2.1,0.1-2.1,2c0,1.5,0.8,2.1,1.7,2.3c1.4,0.5,2.8,0.5,4.2,0.5c1.3,0,4.5,0.3,4.5-2.4c0-2.1-1.5-2-2.5-2l-4.2-0.3
	L176.6,317.1z M182.3,295.7c0-2.4-0.9-3.9-2.6-3.9c-1.6,0-2.5,1.6-2.5,3.9c0,2.5,0.9,3.8,2.7,3.8
	C181.5,299.4,182.3,297.8,182.3,295.7"/>
<path class="st0" d="M229.5,300.1c1.3-1.8,1.8-4.6,2.2-7.1l7.6,1.3c-0.8,4.8-2.3,9.6-4.8,13c0.9,1,1.8,1.2,2.9,1.2l1.9-0.2v9
	c-1.1,0.4-2.3,0.7-3.5,0.7c-2.8,0-4.8-0.9-6.9-3.4c-2,2.6-5.7,3.5-8.4,3.5c-5.7,0-11.8-3.6-11.8-12.9c0-6.4,3-9.6,6.8-11.5
	c-1.3-2.4-2.4-5-2.4-8.2c0-7.8,5-10.5,9.7-10.5c4.5,0,9.2,2.8,9.2,10.3c0,5.1-2.3,8.7-5.6,10.3L229.5,300.1z M219.5,299.8
	c-1.5,0.9-2.2,2.4-2.2,4.7c0,3.1,1.7,4.7,3.7,4.7c1.2,0,2.4-0.5,3.3-1.7L219.5,299.8z M225.2,285.7c0-1.9-0.9-3.1-2.2-3.1
	c-1.1,0-2.1,1-2.1,2.7s1.2,3.3,2.1,4.3C224.2,289,225.2,287.6,225.2,285.7"/>
<path class="st0" d="M282.9,302.3c-0.6,9.7-5.5,15.9-12.2,15.9c-8.8,0-13.4-9.1-13.4-21c0-12.1,4.1-22.1,13.3-22.1
	c7.5,0,11.8,6.4,12.4,16.8l-8.4,0.6c0.1-3.5-0.9-8-3.9-8c-4,0-4.2,8.7-4.2,12.7c0,4.2,0.2,11.4,4.2,11.4c2.8,0,3.9-3.5,4-7
	L282.9,302.3z"/>
<path class="st0" d="M309.8,302.2c0,9.5-5.3,15.9-12,15.9s-12-6.5-12-15.9c0-10,5.2-16.5,12-16.5
	C304.7,285.7,309.8,292.2,309.8,302.2 M294.9,301.8c0,8.4,1.4,9,3,9c1.5,0,3-0.6,3-9c0-3-0.1-8.4-3-8.4
	C294.9,293.4,294.9,298.8,294.9,301.8"/>
<path class="st0" d="M335.9,302.2c0,9.5-5.4,15.9-12,15.9c-6.7,0-12-6.5-12-15.9c0-10,5.2-16.5,12-16.5
	C330.8,285.7,335.9,292.2,335.9,302.2 M321,301.8c0,8.4,1.4,9,3,9c1.5,0,3-0.6,3-9c0-3-0.1-8.4-3-8.4C321,293.4,321,298.8,321,301.8
	"/>
<rect x="339.3" y="275.6" class="st0" width="8.5" height="41.9"/>
<path class="st0" d="M360.9,317.6h-8.5v-31.2h8.5V317.6z M360.9,283.3h-8.5V275h8.5V283.3z"/>
<path class="st0" d="M373.4,286.3v4.4h0.1c1-3.5,3.5-5,6.2-5c2.1,0,4.4,0.9,5.7,3.2c1.4,2.6,1.4,6.1,1.4,9.4v19.3h-8.5v-19
	c0-1.9,0-4.5-1.8-4.5c-2.4,0-2.6,2.9-2.6,5.4v18h-8.5v-31.2L373.4,286.3L373.4,286.3z"/>
<path class="st0" d="M406,308.5c1.9,0.1,3.9,0.5,5.4,2.1c1.7,1.8,2.5,4.8,2.5,7.8c0,4.5-2.1,7.3-4.9,8.6c-2.3,1.2-5.7,1.3-8.3,1.3
	c-3.6,0-11.9-0.4-11.9-7.7c0-3,1.2-5.1,3.2-6.1c-1.2-1.3-2-2.7-2-4.9c0-3.6,2.1-5.7,4.2-6.9c-2.3-1.4-3.6-3.6-3.6-7.2
	c0-8.1,6.3-9.8,10.7-9.8c1.4,0,2.7,0.1,4.1,0.6c0.5-4.5,2.1-7.3,5.4-7.3l2.5,0.2l0.6,0.1l-0.2,8.4l-2.1-0.1c-0.8,0-2,0.1-2.4,1.2
	c1.5,1.7,2.4,4.3,2.4,7c0,7.8-5.6,9.5-10,9.5l-1-0.1l-0.9-0.1c-0.7,0-2.1,0-2.1,1.5c0,1.6,1.6,1.5,2.3,1.5L406,308.5z M398.2,317.1
	c-1,0-2.2,0.1-2.2,2c0,1.5,0.8,2.1,1.7,2.3c1.4,0.5,2.8,0.5,4.2,0.5c1.3,0,4.5,0.3,4.5-2.4c0-2.1-1.5-2-2.5-2l-4.2-0.3L398.2,317.1z
	 M403.9,295.7c0-2.4-0.9-3.9-2.6-3.9c-1.6,0-2.5,1.6-2.5,3.9c0,2.5,0.9,3.8,2.7,3.8C403,299.4,403.9,297.8,403.9,295.7"/>
<path class="st0" d="M437.9,303.3c0.8,3.7,2.7,5.1,5.4,5.1c1.2,0,3.5-0.2,3.5-2.6c0-2.6-2.3-3-3.6-3.4c-5.5-1.5-12.1-3.7-12.1-13.6
	c0-4.1,1.4-8.1,3.8-10.5s5.5-3.2,8.4-3.2c5.1,0,10,3,11.8,10.3l-7.5,3.2c-0.9-3.1-2.5-4.2-4.8-4.2c-1.2,0-2.9,0.5-2.9,2.7
	s2.1,2.6,3.2,3c2.8,0.8,5.7,1.5,8.3,3.4c2.9,2.2,4.4,6.1,4.4,10.7c0,10.1-7,14.1-13.1,14.1c-6.2,0-11.6-3.7-13.2-12.8L437.9,303.3z"
	/>
<path class="st0" d="M472.1,319.5c-1.6,6.5-3.8,8.9-8.7,8.9l-3.6-0.2l-0.7-0.1v-8.7l3.1,0.4c1.2,0,3.7,0.1,3.7-2.4
	c0-0.9-0.3-1.9-0.6-2.8l-7.7-28.2h9.2l3.6,16.6l3.8-16.6h6.2L472.1,319.5z"/>
<path class="st0" d="M488.7,307.4c0.5,3,2.8,3.4,4.7,3.4c0.9,0,3.3-0.1,3.3-1.9c0-1.6-2.9-1.9-3.7-2c-4.6-0.9-10-2.2-10-10.5
	c0-3.6,1.3-6.4,3.4-8.2c2.1-1.9,4.6-2.4,7-2.4c4.1,0,8.4,2.2,9.9,8.1l-6.5,1.8c-0.6-2.1-2.3-2.8-3.8-2.8c-0.7,0-2.7,0.3-2.7,1.7
	c0,1,0.7,1.4,1.3,1.6c0.9,0.4,2.7,0.6,3.7,0.7c2,0.4,4.2,0.8,6,2.3c2,1.8,3.1,4.6,3.1,7.9c0,8.6-6.4,11.1-11.3,11.1s-9.4-2.2-11-9.5
	L488.7,307.4z"/>
<path class="st0" d="M504.8,294.3v-7.9h3.6l0.6-10l7.4-0.4v10.3h4.3v7.9h-4.3V305c0,2.3-0.2,4,1.9,4c0.8,0,1.6-0.2,2.4-0.6v8.7
	l-5,0.9c-2.3,0.4-4.4-0.6-6.1-3.2s-1.6-5.6-1.6-8.9v-11.8h-3.2V294.3z"/>
<path class="st0" d="M547,307.1c-1.3,7.6-6,11.1-11.2,11.1c-3.2,0-6.3-1-8.8-4.1c-2.4-3-3.6-7.3-3.6-11.7c0-4.2,1.2-8.8,3.2-11.8
	c2.2-3.3,5.6-4.8,8.7-4.8c7.3,0,11.7,6.7,11.7,17v1.6h-14.6c-0.1,3.4,0.7,5.8,3.3,5.8c1.9,0,3-1.1,3.3-3.8L547,307.1z M538.4,298.3
	c0-3.1-0.7-5.4-3.1-5.4c-2.2,0-3.1,2.5-3,5.4H538.4z"/>
<path class="st0" d="M558,286.3v4.2h0.1c1.2-3.2,3.4-4.8,5.9-4.8c2.7,0,4.8,1.5,6.2,4.8c1.5-3.5,3.7-4.8,6.5-4.8
	c1.9,0,3.8,0.8,5.1,2.7c1.6,2.3,1.6,5.4,1.6,8.7v20.5h-8.3v-18.8c0-2,0.2-4.3-1.8-4.3c-2.4,0-2.3,3.2-2.3,5.7v17.4h-8.3v-18.8
	c0-2-0.1-4.5-1.9-4.5c-2,0-2.2,2.1-2.2,4.5v18.8h-8.3v-31.2h7.7V286.3z"/>
<path class="st0" d="M593.1,307.4c0.5,3,2.8,3.4,4.7,3.4c0.9,0,3.2-0.1,3.2-1.9c0-1.6-2.9-1.9-3.7-2c-4.6-0.9-10-2.2-10-10.5
	c0-3.6,1.3-6.4,3.4-8.2c2.1-1.9,4.6-2.4,7-2.4c4.1,0,8.4,2.2,9.9,8.1l-6.5,1.8c-0.6-2.1-2.3-2.8-3.8-2.8c-0.7,0-2.7,0.3-2.7,1.7
	c0,1,0.7,1.4,1.3,1.6c0.9,0.4,2.6,0.6,3.7,0.7c2,0.4,4.2,0.8,5.9,2.3c2,1.8,3.1,4.6,3.1,7.9c0,8.6-6.4,11.1-11.3,11.1
	c-4.9,0-9.4-2.2-11-9.5L593.1,307.4z"/>
<path class="st0" d="M605.8,239.4c-8,0-14.4-6.4-14.4-14.4c0-7.9,6.4-14.4,14.4-14.4c7.9,0,14.4,6.5,14.4,14.4
	C620.3,233,613.8,239.4,605.8,239.4 M605.8,212.3c-7,0-12.7,5.7-12.7,12.8c0,7,5.7,12.7,12.7,12.7s12.7-5.7,12.7-12.7
	C618.6,218,612.9,212.3,605.8,212.3 M600.5,216.7h7.1c2.5,0,4.8,0.5,5,4c0.1,2-0.5,2.8-2.1,4c1.6,1,1.7,1.3,1.9,4.1
	c0.2,2.1-0.1,2.4,0.8,3.8h-2.4l-0.3-2c-0.3-1.9,0.6-4.8-2.7-4.8h-5.2v6.8h-2L600.5,216.7L600.5,216.7z M602.5,218.5v5.5h5.1
	c1.4,0,2.7-0.4,2.9-2.4c0.3-2.7-1.7-3.1-2.9-3.1H602.5z"/>
<polygon class="st1" points="594,10.8 42.6,10.8 20.3,200 318.8,252.7 616.4,200 "/>
<path class="st2" d="M574.6,32.6l18,149.8L318,230.8L44.1,182.3L62.3,32.7L574.6,32.6z M580.2,26.4H56.8l-19.6,161L318,237.2
	l281.4-49.6v-0.8L580.2,26.4z"/>
<path class="st2" d="M156.3,75.2c-6.3,0-14,3.8-15.8,8.9h-0.3V54.3h-20.5v111.5c0,0,28.1,0.3,34.4,0.3c13.1,0,17-9.3,17-19.3V94.7
	C171.1,84.8,169.4,75.2,156.3,75.2 M150.5,149.8c-0.6,2.2-2.4,4.7-5.2,4.7s-5.2-2.5-5.2-4.7V96.2c0-2.3,2.3-4.5,5.2-4.7
	c2.8,0,4.7,2.5,5.2,4.7V149.8z"/>
<path class="st2" d="M246.3,114.8h-20.5V96.2c-0.6-2.2-1.8-4.7-4.7-4.7c-2.8,0-5.2,2.5-5.2,4.7v69.7h-20.3V76.3H216V84h0.4
	c3.2-5.5,9.6-8.8,16.9-8.8c10.5,0,13.1,6,13.1,15.7L246.3,114.8L246.3,114.8z"/>
<path class="st2" d="M304.4,166.8c-2.5,15.5-5.5,21.4-26.2,21.4h-10.6v-17h6.6c4.5,0,6-0.8,6-4.1c0-0.8,0-1.6-0.2-2.7l-16.7-88.2
	h21.1l8.1,68.4h0.3l7-68.4h19.6L304.4,166.8z"/>
<path class="st2" d="M389.4,96.9c0-17.2-11.6-23.2-24.9-23.2c-13.4,0-24.7,8.2-24.7,21.7v7.5h20.3v-8.3c0-2.2,1.6-4.7,4.4-4.7
	s5.1,2.5,5.1,4.7v3.6c0,19.4-29.9,10.8-29.9,33.3v19.3c0,10.2,3.5,15.4,14.1,16.1c12,0.8,35.5-0.3,35.5-0.3
	C388.9,160.7,389.4,96.9,389.4,96.9 M368.7,148.2c0,2.2-1.2,4.6-4.4,4.6c-3.3,0-4.2-2.5-4.2-4.6v-16c0-3.8,0.8-4.4,4.2-6.9l4.4-2.5
	V148.2z"/>
<path class="st2" d="M467.7,165.9h-20.5V96.2c-0.6-2.2-2.5-4.7-5.3-4.7s-5.2,2.5-5.8,4.7v69.7h-20.4V76.3h21.1v7.8h0.3
	c1.3-5.5,8.1-9.7,13.7-9.7c13.5,0,17,10,17,20.3v71.2H467.7z"/>
<path class="st2" d="M527.2,166.7H514c-15.1-0.8-17.8-5.1-17.8-18.9V90h-9V75.3h9v-17h20.4v17h9.9V90h-9.9v55.2
	c0.7,2.8,1.2,6.1,4.3,6.1h6.3V166.7z"/>
</svg>
