<svg xmlns="http://www.w3.org/2000/svg" width="361.81" height="99.42" viewBox="0 0 361.81 99.42"><defs><style>.cls-1{fill:#006698;}.cls-2{fill:#de2221;}.cls-3{fill:#069;}.cls-4{fill:#fefefe;}.cls-5{fill:#ed8685;}.cls-6{fill:#e65958;}.cls-7{fill:#8ab8cf;}.cls-8{fill:#ec807f;}.cls-9{fill:#e13534;}.cls-10{fill:#f09c9b;}.cls-11{fill:#fefbfb;}</style></defs><title>energy-kinetics</title><g id="Layer_2" data-name="Layer 2"><g id="Layer_1-2" data-name="Layer 1"><path class="cls-1" d="M83.87,53.28C83.79,50,85.53,47.34,86,44.33a19.14,19.14,0,0,0-12.4-21.28c-12-4.48-23.25-1.73-34.38,2.78A98.3,98.3,0,0,0,25,33.36c-1.2.74-3,1.32-1.68,3.34s2.34.19,3.27-.46c8.85-6.15,18.25-11,29.16-12.07,11.41-1.11,24.35,3.61,27,15.87C84.07,46.22,80.53,57,75.8,60.16c-.73-2.25.75-4,1.31-5.87,3.5-11.49-4.34-20.22-13.44-22.45a39,39,0,0,0-20.07.67A77,77,0,0,0,28.07,39c-2.23,1.19-2.26,2.3-1.16,4.23,2.91,5.07,2.86,5.14-3.09,5.22-7.12.09-14.24.07-21.36.15-2.06,0-3.16-.33-2-2.71C4.39,38,8.21,30,12.09,22.11c.33-.67.41-1.72,1.4-1.74s1.09,1,1.48,1.65c2.82,4.92,2.8,4.87,7.38,1.22C35,13.17,48.6,5.21,65,3.29c8.64-1,17.11.11,24.74,4.28,9.27,5.06,13,14.65,10.08,26C98.23,39.82,95.29,44.5,92,47.17c-.11-3.44,1.66-6.25,2.33-9.3,3-13.77-7-24.45-20-26.53-16.1-2.57-30.17,3.11-43.72,10.8-3.18,1.81-6.18,3.93-9.29,5.87-1.26.79-2.37,1.5-1.16,3.21s2.14.4,3-.32A89.63,89.63,0,0,1,44.7,17.52c10.55-4.45,21.24-5.93,32.41-2.14a21,21,0,0,1,13.81,26C89.37,46.89,86.72,51.44,83.87,53.28Z"/><path class="cls-2" d="M34.29,51.61c-2.11,3.53-4.39,7-5.74,10.9C25,72.8,28.5,81.22,37.88,86.71c11.41,6.67,23,5.9,34.8,1.71A106.86,106.86,0,0,0,99.83,73.79c.83-.6,2.49-1.09,1.5-2.55-1.18-1.74-2.26-.07-3.12.56-9.34,6.81-19.2,12.51-30.64,15-8.21,1.8-16.24,1.21-23.72-2.7-11.91-6.23-14.94-18.19-7.87-30A83.38,83.38,0,0,1,43.8,43.76c.72-.46,1.25-.48,1.31.58C42.76,48.49,40,52.4,38.91,57.22c-1.48,6.72.26,12.34,5.51,16.66,9,7.39,19.29,8.45,30.15,5.54A82.88,82.88,0,0,0,97,69.21c1.12-.7,2.83-1.26,1.52-3.05-1.17-1.59-2,.14-2.79.61C86.3,72.19,76.62,76.94,65.32,76.2,57,75.67,49.88,72.73,45.55,65.11c-4.24-7.45-1.56-14.26,2.73-20.5,1.77-2.57,2.92-6.06,6.56-7l-.06-.06c-.21,2.22-1.69,3.85-2.72,5.66-5.53,9.69-2.75,18.77,7,24C70,73,80.36,70.44,90.72,65.92c5.84-2.55,5.87-2.68,2.92-8.28-1.15-2.19-1.07-2.91,1.69-2.87,8,.11,16.07,0,24.1-.09,2.44,0,2.82.74,1.81,2.79-3.83,7.81-7.61,15.64-11.42,23.46-.83,1.7-1.5,2-2.78.14s-1.55-5.7-4.12-5.68c-1.91,0-3.78,2.68-5.7,4.13C86.12,88,74.6,95.83,60.6,98.33c-11.24,2-22.53,1.89-31.93-6.18C20.33,85,17.75,76.31,23.12,64.63A41.61,41.61,0,0,1,33.52,50.69C34.15,50.69,34.66,50.79,34.29,51.61Z"/><path class="cls-1" d="M204.81,65.41c1.15-6.24,2.47-12.45,3.35-18.72.37-2.63,1.49-3,3.79-3,6.73.11,6.7,0,5.38,6.45-1.87,9.19-3.74,18.38-5.49,27.59-.44,2.34-1.38,3.19-3.88,3.06-7.08-.36-7.09-.23-9.49-7a151.66,151.66,0,0,0-5.84-14.73Q191.3,66.5,190,73.89c-.06.34,0,.69-.09,1-1,5.56-4.22,7.5-9.8,6-1.32-.35-1.24-1.14-1-2.08q3.42-16.45,6.85-32.91c.34-1.62,1.15-2.24,2.87-2.17,9.62.39,6.74-1.8,10.23,7.42,1.78,4.7,3.42,9.44,5.12,14.17Z"/><path class="cls-2" d="M169.32,22.64c2-5.11,2.22-9.68,3.33-14,.14-.55.1-1.14.21-1.71C174,1.06,174,1.2,180,1.07c2.7-.06,3.39.7,2.84,3.32-2.12,10.08-4.12,20.19-6.1,30.3-.41,2.09-1.51,2.7-3.57,2.76-6.83.18-6.88.28-9.24-6-1.84-4.92-3.53-9.89-5.54-15.55-1.86,4.11-1.88,7.9-2.81,11.44a35.43,35.43,0,0,0-1.39,7.06c-.13,2.58-1.15,3.26-3.61,3.23-6.39-.08-6.35,0-5.07-6.38,1.77-8.87,3.55-17.73,5.15-26.63.45-2.5,1.48-3.41,4.05-3.4,6.53,0,6.59-.14,8.92,5.92C165.53,11.93,167.22,16.84,169.32,22.64Z"/><path class="cls-1" d="M229.83,80.72c-4,0-8-.1-12,0-2.1.07-2.67-.71-2.26-2.64,2.26-10.74,4.53-21.48,6.69-32.24.31-1.53.83-2.15,2.42-2.15q12.39,0,24.78-.09c2.09,0,2.4.64,2,2.68-1.29,6.41-1.18,6.43-7.52,6.43-3.56,0-7.13.22-10.66-.06-2.88-.23-2.93,1.82-3.15,3.46-.33,2.5,1.82,1.47,2.9,1.49,4,.09,8,.06,12-.07,1.84-.06,2.59.56,2.17,2.39-1.45,6.29-.07,5.92-6.34,5.85-3.33,0-6.68.24-10-.09-3.91-.39-3.25,2.74-3.44,4.54-.23,2.25,2,1.15,3.12,1.18,4.35.12,8.72.07,13.07,0,2,0,3,.14,2.36,2.65-1.83,7.22.35,6.54-7.89,6.43-1.37,0-2.75.07-4.12.08s-2.75,0-4.13,0Z"/><path class="cls-2" d="M251.34,14.24a8,8,0,0,1-4.64,5.48c-.74.3-1.54.63-.65,1.69,2.13,2.52,1.86,5.51,1.55,8.5a10.31,10.31,0,0,1-.17,1.36c-.45,1.85,1.53,4.62-.28,5.36-2.26.94-5.17.35-7.8.32-1.3,0-1.24-1.12-1.25-2,0-2.18.06-4.36-.08-6.53-.17-2.67-1.49-4.27-4.41-4.08a10.55,10.55,0,0,1-2.4,0c-2.77-.47-4,.72-4.14,3.46a19.74,19.74,0,0,1-.6,2.67c-1.32,7.16-1.79,7.46-9.11,6.79-1.81-.17-2.06-.93-1.74-2.45C217.79,24.34,220,13.92,222,3.48c.4-2,1.42-2.52,3.31-2.5,5.85.08,11.7-.05,17.55,0,4.71.06,7.51,2.1,8.49,5.89A20.74,20.74,0,0,1,251.34,14.24Z"/><path class="cls-2" d="M279,16.91c7.84.1,7.84.1,6.15,7.82-.69,3.13-1.35,6.27-2.07,9.4-.56,2.46-5.4,4.29-6.46,2.27-1.3-2.48-2-.72-2.92-.24-6.69,3.58-15.89,1.58-19.89-4.67-2.7-4.21-2.32-9.13-1.65-13.74C254.5,2,267.7-2.88,280.54,1.64c4.59,1.61,5.73,5.57,6.45,9.76a2.1,2.1,0,0,1-.25,1.32c-.85,1.42-8.52.89-9.33-.62-2.7-5.08-9.38-5.27-12.84-.34a16.76,16.76,0,0,0-2.93,12.08,6.44,6.44,0,0,0,5.27,5.66c3,.76,7.06-.89,8.51-3.26,1.2-2-.33-1.52-1.4-1.87-1.32-.43-3.92,1.51-3.84-1.64.11-4.6,1.17-5.75,4.7-5.8C276.26,16.9,277.64,16.92,279,16.91Z"/><path class="cls-1" d="M163.06,80.34c-3.19,1.35-6.53.41-9.8.57-1.36.07-1.74-1.25-2.24-2.29-1.68-3.5-3.49-6.95-5.06-10.5-.68-1.55-1.24-1.43-2.5-.67-3.47,2.08-3.75,5.7-4.11,9-.42,3.8-2,5.25-5.72,4.58a9.16,9.16,0,0,0-2.75,0c-2.14.27-2.61-.72-2.21-2.61,2.26-10.71,4.56-21.42,6.69-32.15.35-1.77,1.15-2.2,2.72-2.29,8.15-.42,8.15-.44,6.39,7.4-.39,1.74-1.07,3.43-.87,5.8,3.69-3.58,7.27-6.74,10.45-10.26a8.09,8.09,0,0,1,7.17-3.05c2.62.2,5.27,0,7.91-.09,1.38,1.69.14,2.76-1,3.71-3.78,3.16-7.33,6.6-11.22,9.63-2.21,1.72-2.53,3.39-1.28,5.9,2.7,5.43,5.88,10.63,7.85,16.42A1.51,1.51,0,0,1,163.06,80.34Z"/><path class="cls-2" d="M124.82,37.58c-3.9,0-7.8-.09-11.7,0-2.19.07-2.82-.64-2.37-2.82,2.12-10.29,4.15-20.6,6.17-30.91.31-1.57,1-2.36,2.74-2.36,8.25,0,16.49-.15,24.74-.24,1.41,0,2.25.39,1.79,2a9.43,9.43,0,0,0-.4,2.36c-.05,3.14-1.43,4.44-4.71,4.25-4.23-.25-8.48.08-12.72-.07-2.43-.09-3.21.87-3.28,3.19-.07,2.6,1.64,1.93,3,1.93,3.9,0,7.8.07,11.7,0,1.87,0,2.27.55,2,2.43-.73,5.44-.62,5.46-6.25,5.49-3.44,0-6.88,0-10.31,0s-2.67,2.83-3,4.71c-.43,2.52,1.7,1.56,2.79,1.58q6.71.12,13.42,0c2.19-.05,2.72.51,2.17,2.8-1.64,6.83-.39,5.52-7.22,5.66-2.87.06-5.73,0-8.6,0Z"/><path class="cls-2" d="M195.85,37.42c-3.79,0-7.58-.11-11.37,0-2.31.09-3.14-.57-2.65-3Q185,19.2,188,3.85c.4-2.08,1.36-2.84,3.47-2.82,7.81.08,15.62,0,23.43,0,2.13,0,2.8.51,2.26,2.83-1.27,5.46-1.14,5.5-6.69,5.56-3.79,0-7.58.15-11.37,0-2.79-.1-2.8,1.84-3,3.64-.29,2.53,1.72,1.62,2.84,1.65q6,.14,12.06,0c1.86,0,2.36.46,2,2.41-1,5.25-.9,5.27-6.13,5.3-3.33,0-6.66,0-10,0-2.39,0-4.63,3.46-3.66,5.64.49,1.1,1.6.69,2.42.7,4.48,0,9,.08,13.44-.12,2.63-.12,3.33.76,2.52,3.2a21.66,21.66,0,0,0-.53,3,2.35,2.35,0,0,1-2.79,2.25c-4.13-.15-8.26,0-12.4,0Z"/><path class="cls-1" d="M329.19,67.25c2.07,0,4.13,0,6.2-.06,1.87-.06,3.25-.29,3.8,2.49.61,3.08,8.3,3.75,10.17,1.09,1.1-1.56.85-3.13-1.11-3.9-3.3-1.29-6.75-2.24-9.95-3.74a10,10,0,0,1-2.1-16.61c3.88-3.35,8.57-4.33,13.49-3.89a17.24,17.24,0,0,1,7.22,2,9.38,9.38,0,0,1,4.55,6.18c.85,3.51.22,4.22-3.43,4.26-1.49,0-3,0-4.48,0-1,0-1.86-.19-2.1-1.31-.46-2.17-2.09-2.52-3.91-2.54s-4,0-4.5,2.2c-.62,2.69,1.92,2.64,3.52,3.22,1.4.51,2.87.8,4.28,1.28,6.53,2.24,9.29,5.57,9.11,10.91-.19,5.57-3.24,9.15-9.54,11a21.51,21.51,0,0,1-13.19.06c-4.8-1.59-7.76-4.69-8.11-9.92A2,2,0,0,1,329.19,67.25Z"/><path class="cls-1" d="M327.84,70c-4.79,11.4-20.58,15.11-28.56,6.47-4.92-5.33-4.55-12-3.08-18.56,3.47-15.36,19.34-18.17,28.45-12.63,3.82,2.32,5.19,5.91,5.38,10.14,0,.34.09.88-.08,1-2.43,1.48-5.11.44-7.66.7A1.82,1.82,0,0,1,320,55.64c-1.88-5-6.5-5.78-10.51-2.19-4.31,3.86-4.61,11.79-3.29,15.72s8.65,4.89,10.71.81,4.8-3.76,8.08-3.59l3.42.18C329.35,67.9,328.56,68.93,327.84,70Z"/><path class="cls-2" d="M285.77.78c3.13,0,5.86.06,8.59,0,1.72,0,2,1.09,2.38,2.36,1,3.62,2,7.23,3.32,11.73,2.21-3.24,4.07-5.85,5.8-8.55,3.52-5.49,8-7.32,14.41-5.78,2,.49.84,1.43.28,2.16-3.68,4.83-7,10-11.19,14.36-4.54,4.8-6.09,10.7-7.46,16.68-.62,2.73-1.73,3.19-4.13,3.18-6.65,0-7,0-5-6.4,1.85-6,.24-11.16-2-16.49C289,9.81,287.53,5.49,285.77.78Z"/><path class="cls-1" d="M278,52.68c-5,0-5-.05-6.06,4.82-1.41,6.72-2.82,13.44-4.09,20.19-.39,2.09-1.28,2.76-3.42,2.74-7.43,0-7.43.05-5.87-7.35,1.25-5.94,2.42-11.89,3.76-17.81.44-1.93.17-2.87-2-2.58a13.83,13.83,0,0,1-1.72,0c-6.55,0-7.43-1.41-4.87-7.64a2.1,2.1,0,0,1,2.36-1.41q13.26-.07,26.52-.19c1.9,0,2.95.49,2.11,2.62a7.44,7.44,0,0,0-.35,1.32C283.38,52.72,283.38,52.72,278,52.68Z"/><path class="cls-3" d="M163.06,80.34l0-.88c1.09-8.39,2.9-16.64,4.75-24.88.76-3.4.62-7.1,2.9-10.08,2.74-1.24,5.64-.48,8.46-.6,1.94-.08,1.55,1.32,1.26,2.68C178.72,55,177,63.36,175.35,71.76a46.39,46.39,0,0,0-1.1,6c-.17,2.53-1.35,3.47-3.75,3.16S165.46,81.49,163.06,80.34Z"/><path class="cls-1" d="M284.74,80.31c-5.3.07-5.23.08-4.13-5.08,2-9.26,4-18.52,5.65-27.84.52-3,1.45-4,4.52-3.95,6.73.11,6.63-.09,5.15,6.56-1.88,8.45-3.59,16.95-5.32,25.43C289.64,80.24,289.69,80.24,284.74,80.31Z"/><path class="cls-4" d="M170.75,44.5c-2.19,11-4.36,21.94-6.59,32.9-.15.72-.21,1.63-1.06,2.06-2.93-5.79-5.78-11.63-8.84-17.35-1.07-2-.8-3.19.94-4.61,4.25-3.46,8.34-7.1,12.45-10.73.84-.74,2.4-1.29,1.48-3Z"/><path class="cls-5" d="M54.84,37.6c0-2.07,1.52-2.64,3.06-3.22-.78,1.31-1.05,3.11-3.12,3.16Z"/><path class="cls-2" d="M251.34,14.24q0-3.68,0-7.36A9.87,9.87,0,0,1,251.34,14.24Z"/><path class="cls-6" d="M45.11,44.34l-1.31-.58,2.76-2.22a1.14,1.14,0,0,1,0,1.54C46.17,43.6,45.92,44.29,45.11,44.34Z"/><path class="cls-7" d="M327.84,70c.08-1.16,1.05-2.16.6-3.41l.75.68L329.11,70Z"/><path class="cls-8" d="M35.55,49.32c-.2-1.25.34-1.86,1.91-1.94-.38,1.11-.76,1.88-2,1.88Z"/><path class="cls-9" d="M34.29,51.61l-.77-.93c.38-.89.86-1.64,2-1.36l-.06-.06A2.21,2.21,0,0,1,34.29,51.61Z"/><path class="cls-10" d="M46.56,43.08V41.54c.2-.53.92-1.17,1.08-.88C48.18,41.72,47.21,42.38,46.56,43.08Z"/><path class="cls-11" d="M233.15,16.78c-.84-.8-3.52,1.69-3.61-1.34-.14-4.93,1.23-6.75,4.42-6.78,1.49,0,3-.06,4.47,0a3.6,3.6,0,0,1,3.72,3A3.76,3.76,0,0,1,239.58,16,12.22,12.22,0,0,1,233.15,16.78Z"/></g></g></svg>