<?xml version="1.0" encoding="utf-8"?>
<!-- Generator: Adobe Illustrator 14.0.0, SVG Export Plug-In . SVG Version: 6.00 Build 43363)  -->
<!DOCTYPE svg PUBLIC "-//W3C//DTD SVG 1.1//EN" "http://www.w3.org/Graphics/SVG/1.1/DTD/svg11.dtd">
<svg version="1.1" id="Layer_1" xmlns="http://www.w3.org/2000/svg" xmlns:xlink="http://www.w3.org/1999/xlink" x="0px" y="0px"
	 width="250px" height="79px" viewBox="0 0 250 79" enable-background="new 0 0 250 79" xml:space="preserve">
<g>
	<g>
		<path fill="#A20041" d="M204.316,70.357c-38.186,8.388-88.526-0.16-88.526-0.16s116.18,10.832,113.106-32.438
			C225.777-6.142,61.336,12.358,61.336,12.358c100.785-16.171,147.01-0.906,150.688-0.23c19.159,5.101,31.592,14.494,32.73,24.796
			C247.813,55.84,221.678,66.544,204.316,70.357"/>
	</g>
	<path fill="#A20041" d="M159.653,29.42c0.483-1.651,0.894-3.175,0.185-4.263c-0.526-0.805-1.294-1.059-2.749-1.172
		c-1.325-0.189-3.665-0.099-3.665-0.099c-2.02,0.058-3.244,0.427-4.253,1.239c-1.012,0.811-1.534,1.663-2.374,4.278l-7.059,21.651
		c-0.65,2.019-0.729,3.435-0.241,4.247c0.484,0.811,1.998,1.322,4.405,1.322c2.275-0.006,4.415-0.094,6.312-1.531
		c1.094-0.69,1.634-2.02,2.34-4.025L159.653,29.42 M138.104,61.181c-3.872,0-6.505-0.889-7.901-2.657
		c-1.396-1.771-1.641-4.45-0.48-8.065l6.686-20.415c1.384-4.303,3.159-7.183,5.33-8.634c2.172-1.45,5.566-2.176,10.188-2.176h4.739
		c4.619,0,6.651,0.482,8.395,2.462c1.497,1.7,1.557,4.045,0.173,8.348l-6.656,20.4c-1.158,3.615-2.418,6.607-4.95,8.378
		c-2.532,1.773-6.322,2.359-10.198,2.359H138.104z"/>
	<path fill="#A20041" d="M28.491,60.505c0,0-23.494,0.023-23.491,0.006l13.338-40.675h9.947c0,0-12.042,36.119-11.948,36.119h13.669
		L28.491,60.505"/>
	<path fill="#A20041" d="M67.268,24.447c-0.012,0,1.514-4.588,1.514-4.588H45.465h-0.011L32.129,60.509l23.269-0.004l1.527-4.552
		H43.473c-0.044,0,2.432-7.494,5.135-15.651H60.31c-0.012,0,1.503-4.585,1.503-4.585s-6.129-0.003-11.679-0.005
		c1.403-4.234,2.758-8.307,3.74-11.264H67.268"/>
	<path fill="#A20041" d="M128.611,19.829l-8.838,27.222l-3.705-27.218l-9.742,0.007L93.087,60.512h9.743l8.88-27.234
		c0,0,3.632,26.826,3.699,27.22l-0.003,0.013l5.655,0.001l13.22-40.683H128.611"/>
	<polygon fill="#A20041" points="199.041,19.829 191.941,19.829 183.481,30.5 181.383,19.829 170.96,19.84 174.798,38.319 
		157.891,60.512 164.881,60.512 176.289,45.509 179.401,60.505 189.389,60.511 184.935,37.876 	"/>
	<path fill="#A20041" d="M95.055,19.833l-8.838,27.221L82.516,19.84l-9.746,0.003L59.532,60.516h9.744l8.879-27.236
		c0,0,3.637,26.852,3.696,27.221l-0.004,0.015h5.657l13.222-40.683H95.055"/>
</g>
</svg>
