<svg xmlns="http://www.w3.org/2000/svg" viewBox="0 0 164.01 102.33"><defs><style>.cls-1{fill:#e9422e;}.cls-1,.cls-2{fill-rule:evenodd;}.cls-2{fill:#231f20;}</style></defs><title>ruud logo</title><g id="Layer_2" data-name="Layer 2"><g id="Layer_1-2" data-name="Layer 1"><path class="cls-1" d="M.38,27S4.92-.28,33.38,0c0,0,14.83-1.06,52.68,11.5,0,0,48.44,16,77.2-.61V27Z"/><path class="cls-1" d="M163.22,74.48s-4.39,28.16-32.85,27.85c0,0-15,.15-52.83-12.41,0,0-48.44-16-77.2.61v-16Z"/><path class="cls-2" d="M0,32.19H24.07c11.81,0,11.35,10.29,11.35,10.29,0,7-6.36,9.54-6.36,9.54a51.85,51.85,0,0,1,8.63,17.26H22.93C21.12,60.19,17,56.33,17,56.33H14.3V69H0V32.19ZM14.08,47h3.75s3.63.11,3.63-3.07-3.63-3.29-3.63-3.29H14.08V47Z"/><path class="cls-2" d="M40,32.19V55.65s-.68,14.08,18.62,14.08c20.74,0,19.3-14.08,19.3-14.08V32.19H63.58v22s.23,3.29-4.77,3.29S54,54.18,54,54.18v-22Z"/><path class="cls-2" d="M81.74,32.19V55.65s-.68,14.08,18.62,14.08c20.74,0,19.3-14.08,19.3-14.08V32.19h-14.3v22s.23,3.29-4.77,3.29-4.77-3.29-4.77-3.29v-22Z"/><path class="cls-2" d="M124.35,32.26H145.7S164,30.45,164,49.82,145.7,68.74,145.7,68.74H124.35V32.26Zm12.11,11.28V58.3h9.69s4.29-1.43,4.24-7.51c-.05-6.56-4.24-7.25-4.24-7.25Z"/><path class="cls-2" d="M161.22,35.41A2.4,2.4,0,1,1,163.65,33a2.4,2.4,0,0,1-2.43,2.41Zm-2-2.41a2,2,0,1,0,2-2,1.95,1.95,0,0,0-2,2Z"/><path class="cls-2" d="M160.71,33.19v1.2h-.42V31.62h1.06c.66,0,1,.24,1,.79a.72.72,0,0,1-.72.76l.79,1.22h-.47l-.73-1.2Zm0-.35h.5c.36,0,.68,0,.68-.45s-.31-.41-.61-.41h-.57v.86Z"/></g></g></svg>