<?xml version="1.0" encoding="utf-8"?>
<!-- Generator: Adobe Illustrator 24.1.1, SVG Export Plug-In . SVG Version: 6.00 Build 0)  -->
<svg version="1.1" id="Слой_1" xmlns="http://www.w3.org/2000/svg" xmlns:xlink="http://www.w3.org/1999/xlink" x="0px" y="0px"
	 viewBox="0 0 1200 313.7" style="enable-background:new 0 0 1200 313.7;" xml:space="preserve">
<style type="text/css">
	.st0{fill:#FFFFFF;}
	.st1{fill:#083069;}
</style>
<g>
	<path class="st0" d="M257.5,36.1c20-1.9,40.5,1.2,59,9.2c22,9.5,41.1,25.8,53.9,46c8.4,13.2,14.2,28,16.8,43.4
		c3.8,21.3,1.7,43.7-6,63.9c-10.4,27.5-31.3,50.8-57.5,64.1c-18.1,9.3-38.7,13.8-59.1,13.1c-19.3-0.7-38.4-6.1-55.2-15.7
		c-15.6-8.9-29.1-21.3-39.3-36.1c-10.1-14.5-16.9-31.2-19.7-48.7c-3.4-20.9-1.3-42.8,6.3-62.6c6.6-17.3,17.3-32.9,30.9-45.5
		C206.7,49.7,231.7,38.5,257.5,36.1 M259.4,45.4c-21.3,1.9-42,10.1-58.8,23.4c-18.3,14.4-31.9,34.7-38.2,57.1
		c-8,28.2-4.3,59.5,10.3,84.9c11.5,20.4,29.7,37,51.1,46.5c17,7.7,36,10.9,54.7,9.3c19.5-1.6,38.4-8.5,54.4-19.7
		c13.1-9.1,24.1-21.1,32.2-34.9c9.9-16.8,15.2-36.2,15.2-55.6c0.1-17.8-4.2-35.6-12.4-51.4c-12.2-23.7-33.1-42.7-57.9-52.4
		C294.1,46.3,276.6,43.9,259.4,45.4L259.4,45.4z"/>
	<path class="st0" d="M197.9,98.4c3.6-4,9.1-6.2,14.5-5.9c7.6,0.4,14.4,6,16.3,13.3c1.9,6.8-0.7,14.5-6.2,18.9
		c6.1,12.6,12.1,25.3,18.2,37.9c6-12.5,12.1-24.9,18-37.4c-3.4-2.4-5.9-6-7-10c-1.2-4.4-0.6-9.3,1.5-13.3c2.3-4.2,6.3-7.5,10.9-8.8
		c4.9-1.4,10.3-0.6,14.5,2.1c5,3.1,8.2,8.7,8.4,14.5c0.3,6-2.7,12.1-7.6,15.6c6,12.5,12.1,24.9,18.1,37.4c6-12.6,12-25.2,17.9-37.7
		c-2.8-2.3-4.9-5.3-6-8.7c-1.6-4.9-1-10.4,1.7-14.8c2.7-4.6,7.6-7.9,12.9-8.6c4.6-0.7,9.5,0.5,13.2,3.3c3.9,2.9,6.6,7.4,7.2,12.2
		c0.7,4.9-0.8,10.1-4,13.9c-3.7,4.5-9.6,6.9-15.4,6.4c-9.3,18.6-18.6,37.3-27.9,55.9c-9.4-18.7-18.8-37.4-28.3-56.1
		c-9.6,18.7-19.1,37.4-28.6,56.1c-9.3-18.7-18.5-37.3-27.8-56c-4,0.3-8.1-0.8-11.4-3c-4.1-2.7-7-7.2-7.8-12.1
		C192.6,108.1,194.3,102.4,197.9,98.4L197.9,98.4z M232,193.5c24.3-0.1,48.6,0,72.9,0c3.4-0.1,6.8,0.8,9.5,2.9
		c3.7,2.8,5.9,7.6,5.3,12.2c-0.8,6.7-7,12.3-13.8,12.3c-24.5,0-49,0-73.6,0c-7.8,0.1-14.7-7.2-14-15
		C218.8,199.1,225.2,193.6,232,193.5L232,193.5z"/>
</g>
<g>
	<path class="st1" d="M258.9,25.5c19-1.5,38.3,1.2,56.2,8c21.8,8.2,41.3,22.4,55.9,40.7c9.8,12.2,17.4,26.2,22.2,41.1
		c6.7,20.5,8.2,42.7,4.3,63.9c-5.2,29.1-20.7,56.1-43.1,75.4c-18.1,15.7-40.7,26.3-64.4,30.1c-2.3,0.3-4.6,0.8-7,0.8
		c-9.8,0-19.7,0-29.5,0c-21.3-2.4-41.9-10.4-59.5-22.7c-17-11.9-31.1-27.9-40.7-46.3c-9-17-14-36.1-14.8-55.3
		c-0.9-21.9,3.7-44,13.5-63.5c11.8-23.8,31.1-43.8,54.5-56.5C222.7,32.2,240.7,26.9,258.9,25.5 M257.5,36.1
		c-25.9,2.4-50.8,13.6-69.9,31.2c-13.6,12.5-24.3,28.2-30.9,45.5c-7.6,19.8-9.7,41.6-6.3,62.6c2.9,17.4,9.6,34.2,19.7,48.7
		c10.2,14.7,23.7,27.2,39.3,36.1c16.8,9.6,35.9,15,55.2,15.7c20.4,0.8,40.9-3.7,59.1-13.1c26.2-13.3,47.1-36.6,57.5-64.1
		c7.8-20.2,9.8-42.6,6-63.9c-2.7-15.4-8.5-30.2-16.8-43.4c-12.9-20.2-31.9-36.5-53.9-46C298.1,37.4,277.6,34.2,257.5,36.1
		L257.5,36.1z"/>
	<path class="st1" d="M259.4,45.4c17.1-1.5,34.6,0.9,50.6,7.3c24.8,9.7,45.8,28.7,57.9,52.4c8.2,15.8,12.5,33.6,12.4,51.4
		c0,19.4-5.3,38.8-15.2,55.6c-8,13.8-19.1,25.8-32.2,34.9c-16,11.2-34.9,18.1-54.4,19.7c-18.6,1.6-37.6-1.6-54.7-9.3
		c-21.4-9.6-39.6-26.1-51.1-46.5c-14.6-25.4-18.4-56.7-10.3-84.9c6.2-22.4,19.8-42.7,38.2-57.1C217.4,55.5,238.1,47.2,259.4,45.4
		 M197.9,98.4c-3.7,4-5.4,9.7-4.5,15c0.7,4.9,3.7,9.4,7.8,12.1c3.3,2.3,7.4,3.3,11.4,3c9.3,18.6,18.5,37.3,27.8,56
		c9.5-18.7,19.1-37.4,28.6-56.1c9.4,18.7,18.8,37.4,28.3,56.1c9.3-18.6,18.6-37.3,27.9-55.9c5.8,0.5,11.7-1.9,15.4-6.4
		c3.2-3.8,4.7-9,4-13.9c-0.6-4.8-3.3-9.3-7.2-12.2c-3.7-2.8-8.6-4-13.2-3.3c-5.3,0.7-10.2,4-12.9,8.6c-2.7,4.4-3.3,9.9-1.7,14.8
		c1.1,3.4,3.2,6.4,6,8.7c-6,12.6-12,25.2-17.9,37.7c-6.1-12.5-12.1-24.9-18.1-37.4c4.9-3.5,8-9.5,7.6-15.6
		c-0.2-5.8-3.5-11.4-8.4-14.5c-4.3-2.7-9.7-3.5-14.5-2.1c-4.6,1.3-8.7,4.5-10.9,8.8c-2.2,4-2.7,8.9-1.5,13.3c1.1,4,3.6,7.6,7,10
		c-6,12.5-12,24.9-18,37.4c-6.1-12.6-12.1-25.2-18.2-37.9c5.5-4.4,8.2-12.1,6.2-18.9c-1.9-7.3-8.7-13-16.3-13.3
		C207,92.2,201.6,94.4,197.9,98.4 M232,193.5c-6.8,0.1-13.2,5.5-13.6,12.4c-0.8,7.8,6.2,15.1,14,15c24.5,0,49,0,73.6,0
		c6.8,0,13-5.6,13.8-12.3c0.6-4.6-1.5-9.4-5.3-12.2c-2.7-2.1-6.1-3-9.5-2.9C280.6,193.5,256.3,193.5,232,193.5L232,193.5z
		 M654.2,108.2c3.7-1.3,8.3,0.1,10.2,3.7c2,3.5,0.8,8.5-2.8,10.5c-4.1,2.6-10.2,0.9-12.1-3.5C647.6,114.8,649.9,109.5,654.2,108.2z
		 M408.2,109.2c5.4,0,10.7,0,16.1,0c3.2,20.7,6.4,41.5,9.7,62.2c3.7-20.7,7.5-41.5,11.2-62.2c5.7,0,11.4,0,17,0
		c3.7,20.7,7.5,41.5,11.2,62.2c3.2-20.7,6.4-41.5,9.6-62.2c5.4,0,10.7,0,16.1,0c-5.6,33-11.3,65.9-16.9,98.9c-5.3,0-10.5,0-15.8,0
		c-4.2-22.8-8.4-45.6-12.6-68.5c-4.2,22.8-8.4,45.6-12.7,68.5c-5.4,0-10.7,0-16.1,0C419.4,175.1,413.8,142.2,408.2,109.2
		L408.2,109.2z M790.2,208.1c0-33,0-65.9,0-98.9c5,0,10,0,14.9,0c0,9.4,0,18.8,0,28.2c2.3-3,4.9-6.1,8.6-7.2
		c4.1-1.2,8.7-1.1,12.7,0.3c4.5,1.6,8,5.4,9.6,9.9c1.1,2.8,1.4,5.7,1.3,8.7c0,19.7,0,39.4,0,59.1c-4.7,0-9.5,0-14.2,0
		c0-18.6,0-37.2,0-55.8c0-3-0.6-6.4-3.1-8.5c-2.6-2.1-6.3-1.8-9.3-0.8c-3.5,1.1-5.7,4.7-5.7,8.3c0,18.9,0,37.8,0,56.7
		C800.1,208.1,795.1,208.1,790.2,208.1L790.2,208.1z M616,117.1c4.6,0.1,9.3-0.2,13.8,0.1c0.1,4.5,0,9.1,0,13.6c3.9,0,7.7,0,11.6,0
		c0,4.4,0,8.8,0,13.2c-3.7,0-7.5,0-11.2,0v44.7c0,2.5,0.3,5,1,7.5c1.2,4.3,3,8.5,6,11.9c-5.2,0-10.5,0-15.7,0c-1.3-2-2.6-4-3.3-6.2
		c-1-3.2-2.2-6.5-2.1-9.9c-0.1-16,0-32,0-48c-11.4,0-22.8,0-34.1,0c-3,0-6.4,1-8.1,3.8c-1.7,3.1-1.2,7.3,1,10c1.7,2,3.5,4,6,5.1
		c4.6,2.4,9.3,4.9,13.9,7.3c3.7,2,7.2,4.8,9.1,8.7c2,4.2,2.3,9,1.9,13.5c-0.5,4.9-3.1,9.5-7.2,12.4c-5.3,3.8-12.1,5-18.5,4.6
		c-8.7-0.5-17-5.9-20.8-13.8c-2.1-4.2-2.8-9-2.6-13.7c4.7,0,9.5,0,14.2,0c0,3.8,0.8,7.8,3.3,10.9c2.7,3.4,7.7,4.7,11.8,3.4
		c3.1-1.1,4.7-4.4,4.9-7.5c0-3.5-2.8-6.2-5.6-8c-5-2.9-10-5.7-14.9-8.6c-3.4-2.4-6.7-5.1-9-8.6c-2.9-4.4-3.6-10-2.9-15.1
		c0.7-5.4,4-10.3,8.5-13.2c5-3.3,11-4.5,16.9-4.5c10.7,0,21.5,0,32.2,0C616,126.3,616,121.7,616,117.1z M771.1,138.7
		c-1.2-4.2,1.9-9,6.3-9.5c4.5-0.7,9.1,3.3,8.8,7.8c-0.1,4.3-4.5,7.8-8.7,7c-1.9-0.3-3.7-1.3-5-2.7c1.9,4.6,2.4,9.6,2.4,14.6
		c0,5.3,0,10.6-1.3,15.8c-1,4.1-2.9,8.1-6,10.9c-3.3,3.1-7.9,4.6-12.3,4.9c-4.9,0.4-9.9-0.1-14.4-2c0,3.5,0,6.9,0,10.4h22.7
		c4,0,8.2,0.4,11.8,2.2c2.9,1.4,5.4,3.7,6.8,6.7c1.8,3.8,2.1,8.1,1.6,12.3c-0.5,4.1-2.5,8.1-5.9,10.6c-4,3-9.1,3.7-13.9,3.7
		c-6.8,0-13.6,0.1-20.3,0c-4.1-0.2-8.8-0.7-11.8-3.9c-2.9-3.3-2.7-8-2.2-12.1c0.7-4.4,5.4-6.5,9.4-7.1c-3.5-0.6-7.3-2.2-8.7-5.7
		c-1.5-3.9-1.4-8.7,0.9-12.2c1.8-2.9,5-4.9,8.5-5.3c-3.6-1.9-6.4-5.1-8-8.9c-2.1-5-2.4-10.6-2.4-16c0-5.6-0.3-11.3,1.3-16.7
		c1-3.6,3-6.9,6-9.1c3.4-2.6,7.7-3.7,12-4c4.7-0.4,9.5-0.2,14,1.6C766.1,133.2,769.1,135.6,771.1,138.7 M749.5,142.4
		c-2.4,0.7-4.1,2.8-5,5c-1.7,4.3-1.6,9.1-1.5,13.6c0.2,3.8,0.4,7.9,2.3,11.3c2.4,4.4,9.5,5,12.6,1.1c1.9-2.4,2.6-5.5,2.9-8.5
		c0.5-4.3,0.5-8.7,0-13.1c-0.4-2.8-1-5.7-3-7.8C755.8,141.9,752.3,141.6,749.5,142.4 M740.9,208.1c0,4,0,7.9,0,11.9
		c7.9,0,15.8,0,23.6,0c1.9,0,3.9-0.2,5.7-1.1c3.3-1.7,3.7-7.1,0.6-9.2c-2-1.3-4.4-1.6-6.7-1.6C756.3,208.1,748.6,208.1,740.9,208.1
		L740.9,208.1z M518.8,129.9c7.4-1.2,15.7-0.8,21.8,4c5.9,4.7,8.3,12.5,8.6,19.8c0.1,6,0,12,0.1,18c-11.1,0-22.2,0-33.3,0
		c0,4.2-0.1,8.3,0.1,12.5c0.2,3.1,0.7,6.5,2.9,8.9c2.1,2.3,5.5,2.6,8.4,2.3c2.3-0.2,4.6-1.6,5.6-3.8c1.5-3.3,1.3-7.1,1.4-10.6
		c5,0,10,0,15,0c0,4.2,0.2,8.4-1,12.4c-1.5,6-5.5,11.4-11.2,14c-6.3,2.9-13.6,2.8-20.3,1.2c-6.1-1.4-11.1-6.3-13.2-12.1
		c-4.1-10.8-3.3-22.6-3.4-34c-0.1-7.7-0.2-16,3.8-22.9C506.9,134.2,512.8,130.9,518.8,129.9 M517.2,145.9c-2.2,3.9-2,8.5-2,12.9
		c6.3,0,12.7,0,19,0c0-4.5,0.1-9.4-2.3-13.4C528.8,140.1,520,140.7,517.2,145.9L517.2,145.9z M697.5,130.1c4.4-1.1,9.2-1.1,13.3,1.1
		c5.5,2.8,9,8.6,9.9,14.6c0.5,3.4,0.2,6.8,0.3,10.2v52.1c-4.8,0-9.6,0-14.5,0c0-18,0-36,0-54c0-3.7-1.2-7.9-4.4-10.1
		c-2.7-1.9-6.6-1.6-9.2,0.4c-3,2.2-4.3,6.1-4.2,9.7c0,18,0,36,0,54h-14.2c0-25.7,0-51.5,0-77.2c4.5,0,9.1,0,13.6,0
		c0,2.2,0,4.4,0,6.5C690.4,134.2,693.5,131.1,697.5,130.1z M865.4,129.7c7.4-1.2,15.7,0.4,21.2,5.9c4.4,4.3,6.2,10.6,6.5,16.6
		c0.1,11.7,0,23.4,0.1,35.2c0,4.4-0.7,8.9-3,12.7c-2.1,3.5-5.4,6.1-9.1,7.6c-4.7,1.9-9.8,2.2-14.8,1.7c-5.1-0.6-10.2-2.6-13.7-6.4
		c-3.5-3.7-5.2-8.8-5.3-13.8c-0.1-11.4,0-22.8,0-34.2c0-5.3,0.7-10.7,3.2-15.4C853.3,134.1,859.2,130.5,865.4,129.7 M867.3,143.1
		c-3.2,0.7-5.3,3.6-5.9,6.6c-0.9,4.5-0.4,9.1-0.6,13.6c0,7.1,0,14.2,0,21.3c0,3.4,0.9,7.3,3.8,9.5c3.1,2.2,7.6,2.2,10.7,0.1
		c3-2.1,4-6.1,4-9.6c0-10.2,0-20.3,0-30.5c-0.1-3.1-0.5-6.6-2.7-9C874.2,142.7,870.4,142.4,867.3,143.1z M960.8,141
		c3.3-6.9,10.8-11.1,18.4-11.6c6-0.5,12.5,1,17.1,5.2c5.3,4.9,7.4,12.4,7.7,19.5c-4.7,0-9.5,0-14.2,0c-0.2-3.8-1.5-8.1-5-10.2
		c-4.1-2.6-10.1-0.5-11.9,3.9c-0.7,1.8-0.4,3.9,0.6,5.5c1.4,2.4,3.7,4.1,6,5.5c4.5,2.7,9,5.5,13.5,8.2c4,2.5,7.6,5.8,9.8,10.1
		c2,3.7,2.7,7.9,2.4,12.1c-0.2,5.1-1.9,10.4-5.6,14c-4.6,4.6-11.4,6.3-17.7,6.4c-6.1,0.2-12.3-1.7-16.8-5.9
		c-6.1-5.7-8.7-14.3-8.4-22.4c4.6,0,9.3,0,13.9,0c0,3.8,1,7.7,3.5,10.6c2.4,2.9,6.3,4.5,10.1,4c3.9-0.9,6.6-5,5.9-8.9
		c-0.6-3.4-3.3-6-6-7.7c-5.1-3.1-10.1-6.2-15.2-9.3c-2.1-1.3-3.9-2.8-5.5-4.7C957.8,158.6,957.1,148.7,960.8,141L960.8,141z
		 M1024.5,132c4.7-2.3,10-2.7,15.1-2.6c5.2,0.2,10.4,1.8,14.3,5.4c5.3,4.9,7.3,12.3,7.6,19.3c0.1,5.8,0,11.7,0,17.6
		c-11.1,0-22.2,0-33.3,0c0.1,4.5-0.2,8.9,0.2,13.4c0.3,2.9,0.9,6.1,3.1,8.2c2.2,2,5.4,2.3,8.2,2.1c2.3-0.2,4.6-1.6,5.6-3.8
		c1.5-3.3,1.3-7.1,1.4-10.6c5,0,10,0,15,0c0,3.9,0.2,7.9-0.8,11.7c-1.1,4.7-3.6,9.2-7.4,12.2c-4.3,3.6-10.1,4.9-15.6,4.8
		c-6.6,0-13.8-1.6-18.2-6.9c-2.8-3.3-4.4-7.5-5.4-11.7c-2.5-11.4-1.5-23.1-1.7-34.7c0.1-5.6,0.8-11.3,3.5-16.2
		C1017.8,136.6,1020.9,133.7,1024.5,132 M1029.6,145.9c-2.2,3.9-2,8.5-2,12.9c6.3,0,12.7,0,19,0c0-4.5,0.1-9.4-2.3-13.4
		C1041.1,140.1,1032.4,140.7,1029.6,145.9L1029.6,145.9z M649.9,131.1h14.4c0,25.7,0,51.3,0,77c-4.8,0-9.6,0-14.4,0
		C649.9,182.4,649.9,156.8,649.9,131.1z M902.8,130.9H917c0,18.1,0,36.1,0,54.2c0.1,3.1,0.4,6.4,2.3,8.9c1.7,2.2,4.8,2.7,7.5,2.4
		c3-0.3,5.3-2.7,6.5-5.3c1.8-3.9,1.6-8.3,1.6-12.5c0-15.9,0-31.8,0-47.7c4.6,0,9.2,0,13.9,0c0,25.8,0,51.5,0,77.3
		c-4.5,0-9.1,0-13.6,0c0-2.2,0-4.3,0-6.5c-2.1,2.6-4.6,4.9-7.6,6.3c-4.3,2-9.3,2.3-13.7,0.8c-3.5-1.1-6.4-3.9-8-7.2
		c-2.4-5-2.9-10.6-3-16C902.8,167.3,902.8,149.1,902.8,130.9L902.8,130.9z"/>
</g>
</svg>
