<?xml version="1.0" encoding="UTF-8" standalone="no"?>
<svg
   xmlns:dc="http://purl.org/dc/elements/1.1/"
   xmlns:cc="http://creativecommons.org/ns#"
   xmlns:rdf="http://www.w3.org/1999/02/22-rdf-syntax-ns#"
   xmlns:svg="http://www.w3.org/2000/svg"
   xmlns="http://www.w3.org/2000/svg"
   viewBox="0 0 278.09332 62.986668"
   height="62.986668"
   width="278.09332"
   xml:space="preserve"
   id="svg2"
   version="1.1"><metadata
     id="metadata8"><rdf:RDF><cc:Work
         rdf:about=""><dc:format>image/svg+xml</dc:format><dc:type
           rdf:resource="http://purl.org/dc/dcmitype/StillImage" /></cc:Work></rdf:RDF></metadata><defs
     id="defs6" /><g
     transform="matrix(1.3333333,0,0,-1.3333333,0,62.986667)"
     id="g10"><g
       transform="scale(0.1)"
       id="g12"><path
         id="path14"
         style="fill:#1959a6;fill-opacity:1;fill-rule:nonzero;stroke:none"
         d="M 6.74219,11.7695 H 456.191 V 461.238 H 6.74219 V 11.7695" /><path
         id="path16"
         style="fill:#ffffff;fill-opacity:1;fill-rule:nonzero;stroke:none"
         d="m 172.75,181.055 33.758,-19.278 7.945,13.965 -41.742,23.684 v 82.801 l 68.797,-40.02 0.062,-53.437 h 16.063 l -0.238,44.265 34.359,-20.097 12.348,20.5 -35.301,20.285 38.539,22.175 -8.047,13.887 -46.371,-26.894 -69.031,39.636 69.589,40.188 46.469,-26.809 7.903,13.989 -38.473,21.992 34.199,19.508 -11.269,21.359 -34.34,-19.68 0.16,44.434 H 242.07 l 0.02,-53.613 -69.379,-39.786 v 82.082 l 46.449,26.731 -8.129,13.867 -38.359,-22.258 -0.051,37.41 h -24.043 l 0.184,-73.718 c -10.129,-1.418 -19.774,-4.551 -28.457,-9.16 L 77.6797,437.266 58.3398,423.223 101.02,365.098 C 93.5391,357.961 87.1641,349.617 82.6406,340.176 L 13.5391,363.164 6.14453,340.422 75.3828,317.512 c -0.8125,-4.746 -0.918,-9.739 -0.918,-14.692 0,-5.293 0.5469,-10.418 1.4571,-15.425 L 7.60156,265.43 l 7.38674,-22.746 68.3515,22.05 c 4.418,-8.972 10.4102,-17.078 17.5392,-23.953 L 58.3906,182.09 77.75,168.035 l 42.402,58.711 c 8.778,-4.695 18.36,-7.918 28.618,-9.336 l -0.086,-73.719 h 23.918 l 0.109,37.364" /><path
         id="path18"
         style="fill:none;stroke:#ffffff;stroke-width:9.76000023;stroke-linecap:butt;stroke-linejoin:miter;stroke-miterlimit:4;stroke-dasharray:none;stroke-opacity:1"
         d="m 172.75,181.055 33.758,-19.278 7.945,13.965 -41.742,23.684 v 82.801 l 68.797,-40.02 0.062,-53.437 h 16.063 l -0.238,44.265 34.359,-20.097 12.348,20.5 -35.301,20.285 38.539,22.175 -8.047,13.887 -46.371,-26.894 -69.031,39.636 69.589,40.188 46.469,-26.809 7.903,13.989 -38.473,21.992 34.199,19.508 -11.269,21.359 -34.34,-19.68 0.16,44.434 H 242.07 l 0.02,-53.613 -69.379,-39.786 v 82.082 l 46.449,26.731 -8.129,13.867 -38.359,-22.258 -0.051,37.41 h -24.043 l 0.184,-73.718 c -10.129,-1.418 -19.774,-4.551 -28.457,-9.16 L 77.6797,437.266 58.3398,423.223 101.02,365.098 C 93.5391,357.961 87.1641,349.617 82.6406,340.176 L 13.5391,363.164 6.14453,340.422 75.3828,317.512 c -0.8125,-4.746 -0.918,-9.739 -0.918,-14.692 0,-5.293 0.5469,-10.418 1.4571,-15.425 L 7.60156,265.43 l 7.38674,-22.746 68.3515,22.05 c 4.418,-8.972 10.4102,-17.078 17.5392,-23.953 L 58.3906,182.09 77.75,168.035 l 42.402,58.711 c 8.778,-4.695 18.36,-7.918 28.618,-9.336 l -0.086,-73.719 h 23.918 l 0.109,37.364" /><path
         id="path20"
         style="fill:#1959a6;fill-opacity:1;fill-rule:nonzero;stroke:none"
         d="m 148.762,241.648 c -29.297,5.137 -50.4807,30.403 -50.4807,61.172 0,30.766 21.2107,56.028 50.5077,61.164 l -0.027,-122.336" /><path
         id="path22"
         style="fill:none;stroke:#ffffff;stroke-width:8.5;stroke-linecap:butt;stroke-linejoin:miter;stroke-miterlimit:4;stroke-dasharray:none;stroke-opacity:1"
         d="m 148.762,241.648 c -29.297,5.137 -50.4807,30.403 -50.4807,61.172 0,30.766 21.2107,56.028 50.5077,61.164 z" /><path
         id="path24"
         style="fill:#231f20;fill-opacity:1;fill-rule:nonzero;stroke:none"
         d="M 738.66,11.8359 H 615.313 V 175.117 L 475.238,460.539 h 137.985 l 64.808,-152.062 64.813,152.062 H 878.73 L 738.66,177.605 V 11.8359" /><path
         id="path26"
         style="fill:#231f20;fill-opacity:1;fill-rule:nonzero;stroke:none"
         d="M 1221.76,238.684 C 1221.76,85.9961 1135.52,0 1024.2,0 906.078,0 827.164,87.2461 827.164,239.934 c 0,140.836 79.965,232.437 197.036,232.437 134.33,0 197.56,-115.281 197.56,-233.687 z m -271.248,0 c 0,-57.336 14.629,-129.004 73.688,-129.004 53.31,0 74.22,54.84 74.22,129.004 0,61.062 -20.91,125.875 -75.26,124 -55.93,0 -72.648,-67.293 -72.648,-124" /><path
         id="path28"
         style="fill:#231f20;fill-opacity:1;fill-rule:nonzero;stroke:none"
         d="M 1370.97,168.262 V 11.8359 H 1247.62 V 460.539 h 177.7 c 125.44,0 166.73,-40.512 166.73,-127.766 0,-51.718 -19.34,-95.339 -63.24,-109.675 39.73,-17.453 63.76,-28.672 63.76,-119.028 0,-58.5817 -1.57,-78.5231 13.07,-78.5231 v -13.711 h -124.92 c -3.13,9.9727 -6.27,38.6407 -6.27,78.5235 0,58.5746 -8.36,77.9026 -65.85,77.9026 z m 0,98.457 h 48.6 c 38.16,0 58.55,11.219 58.55,42.383 0,31.777 -20.91,46.738 -49.66,46.738 h -57.49 v -89.121" /><path
         id="path30"
         style="fill:#231f20;fill-opacity:1;fill-rule:nonzero;stroke:none"
         d="m 1626.43,460.539 h 123.34 V 315.332 l 108.18,145.207 h 144.77 L 1865.27,291.648 2017.36,11.8359 h -147.91 l -90.42,178.8551 -29.26,-36.765 V 11.8359 H 1626.43 V 460.539" /><g
         transform="scale(10)"
         id="g32"><text
           id="text36"
           style="font-variant:normal;font-weight:normal;font-size:10.90600014px;font-family:Helvetica;-inkscape-font-specification:Helvetica;writing-mode:lr-tb;fill:#231f20;fill-opacity:1;fill-rule:nonzero;stroke:none"
           transform="matrix(1,1e-8,-1e-8,-1,200.368,37.7891)"><tspan
             id="tspan34"
             y="0"
             x="0">®</tspan></text>
</g></g></g></svg>